<svg width="1440" height="838" viewBox="0 0 1440 838" fill="none" xmlns="http://www.w3.org/2000/svg">
<g opacity="0.0245071">
<path fill-rule="evenodd" clip-rule="evenodd" d="M835.596 838C837.614 836.827 839.17 835.318 840.093 832.915C847.183 813.861 854.907 795.198 860.441 775.64C864.649 760.944 867.762 746.081 871.682 731.385C876.12 714.007 884.075 699.144 896.354 686.403C905.289 677.128 914.973 668.634 923.389 658.911C940.74 638.628 948.522 614.656 951.001 588.394C952.499 571.519 953.825 554.699 956.938 538.159C963.683 503.515 967.891 468.592 970.139 433.389C970.831 421.542 972.502 409.808 976.998 398.744C982.763 384.663 992.563 374.717 1007.61 371.476C1011.35 370.749 1014.99 370.358 1018.62 370.358C1030.61 370.358 1041.79 374.605 1051.99 382.204C1068.54 394.498 1078.68 411.764 1085.43 431.377C1091.71 449.37 1092.98 468.312 1093.38 487.199C1093.79 501.112 1094.42 515.082 1096.84 528.94C1102.2 559.728 1116.5 585.041 1140.48 604.263C1151.32 613.092 1162.96 620.468 1174.49 628.235C1205.79 649.468 1210.34 685.006 1203.6 715.46C1202.5 719.93 1199.91 723.618 1197.09 727.194C1189.53 736.526 1179.39 738.929 1168.49 740.437C1161.06 741.387 1153.62 741.611 1146.19 741.611C1139.56 741.611 1133.04 741.387 1126.47 741.387C1124.63 741.387 1122.9 741.443 1121.11 741.499C1112.75 741.722 1104.62 742.505 1096.55 744.572C1063.81 753.01 1036.89 771.449 1014.06 796.65C1005.07 806.597 999.019 818.443 994.177 831.015C993.197 833.53 992.39 835.933 994.811 838H1043.35C1046.11 836.715 1047.5 834.256 1048.82 831.686C1055.22 819.56 1062.77 808.552 1073.32 799.835C1093.33 783.407 1115.98 778.211 1139.9 778.211C1144.74 778.211 1149.64 778.434 1154.54 778.769C1169.42 779.999 1184.29 781.228 1199.1 782.793C1208.9 783.854 1218.59 784.86 1228.16 787.431C1235.71 789.442 1240.9 793.912 1243.72 801.568C1246.78 809.949 1248.5 818.666 1249.66 827.439C1250.23 831.239 1250.12 835.206 1253.29 838H1299.69C1301.88 836.435 1303.44 834.312 1305.05 832.189C1310.82 824.142 1317.68 817.605 1326.79 813.749C1334.97 810.285 1343.5 807.994 1351.98 805.703C1365.47 802.071 1379.07 799.277 1391.87 793.521C1404.55 787.933 1415.85 780.613 1423.05 767.817C1433.6 749.042 1437.12 728.871 1434.06 707.469C1429.51 676.513 1414.75 653.1 1387.31 638.516C1367.31 627.788 1346.15 620.691 1324.65 614.656C1309.9 610.465 1294.97 607.057 1280.73 600.91C1261.82 592.752 1250.29 578.447 1246.2 557.493C1243.84 545.591 1244.3 533.633 1244.18 521.62C1244.18 511.226 1246.08 501.001 1248.91 491.054C1258.02 457.975 1278.88 434.45 1306.32 416.458C1326.56 403.215 1348.63 393.604 1370.25 383.043C1387.31 374.717 1404.03 365.944 1419.48 354.824C1427.43 349.125 1434.98 342.866 1440 333.926V226.976C1439.19 226.585 1438.5 226.417 1437.81 226.417C1435.45 226.417 1433.89 228.764 1432.16 230.049C1421.21 239.381 1410.37 248.936 1399.94 258.882C1381.14 276.875 1364.31 297.047 1347.94 317.498C1334.63 333.982 1320.73 349.851 1305.17 364.1C1289.66 378.237 1273.75 391.983 1259.23 407.349C1246.78 420.648 1236.75 435.568 1228.16 451.772C1216.8 473.397 1211.61 496.922 1207.46 520.726C1205.39 532.739 1203.6 544.753 1198.81 556.04C1195.07 564.757 1188.5 569.507 1180.08 569.507C1178.41 569.507 1176.74 569.339 1174.95 569.004C1170.05 567.998 1165.5 566.043 1161.17 563.528C1147.34 555.985 1140.36 542.909 1135.12 528.493C1128.66 510.891 1127.85 492.284 1126.18 473.844C1123.59 443.391 1114.71 415.172 1099.15 389.245C1088.14 370.805 1073.96 355.327 1055.57 344.375C1039.02 334.485 1021.44 330.853 1003.46 330.853C995.329 330.853 987.086 331.579 978.785 332.864C961.492 335.435 948.407 344.99 942.931 363.094C940.106 372.314 939.184 381.981 938.607 391.536C937.685 409.305 937.57 427.074 936.532 444.899C935.206 464.96 931.171 484.461 924.369 503.236C916.529 524.805 906.614 545.2 895.835 565.26C885.401 585.041 871.797 601.525 851.794 611.471C842.341 616.221 834.904 619.182 828.218 619.182C819.513 619.182 812.193 614.153 803.488 601.301C790.345 581.744 776.049 563.081 760.37 545.647C744.518 527.822 726.475 512.456 707.798 497.816C691.139 485.02 676.439 470.324 666.409 451.214C660.068 439.088 654.65 426.46 647.963 414.502C634.532 390.586 616.489 372.482 590.376 363.765C572.679 357.898 554.463 353.707 536.824 347.225C507.253 336.273 484.022 318.001 472.781 286.374C466.786 269.722 463.788 252.68 466.901 235.022C469.668 219.823 476.701 206.636 486.5 195.125C506.734 171.321 525.295 146.288 541.666 119.523C546.336 111.756 551.351 104.268 557.288 97.5068C566.511 87.0018 577.694 80.0171 591.76 80.0171H593.258C614.76 80.7994 632.168 91.4162 647.617 105.833C661.855 119.076 670.617 136.454 679.495 153.608C691.773 177.3 707.337 198.366 726.994 215.744C755.758 241.057 784.811 266.09 813.634 291.235C833.118 308.278 855.195 319.174 880.905 319.174C882.75 319.174 884.537 319.118 886.496 319.007C900.677 318.168 913.589 314.313 923.735 302.802C930.018 295.706 934.918 287.827 939.068 279.389C949.444 258.603 958.84 237.201 971.81 217.868C981.264 203.842 992.217 191.549 1006.86 183.056C1017.47 176.853 1028.42 173.277 1039.66 173.277C1046.46 173.277 1053.38 174.562 1060.41 177.468C1067.15 180.262 1073.67 183.335 1080.01 187.079C1093.5 195.014 1106.7 203.731 1120.88 210.604C1135.87 217.812 1151.32 221.667 1167.28 221.667C1173.97 221.667 1180.77 220.997 1187.63 219.6C1218.07 213.509 1239.34 191.046 1244.82 159.475C1247.12 146.176 1246.66 132.766 1245.05 119.467C1242.05 92.0867 1224.12 73.2559 1199.22 67.8916C1179.27 63.589 1159.04 64.3713 1138.98 62.9184C1129.99 62.3038 1120.99 63.142 1112.12 61.745C1089.41 58.56 1070.09 49.1166 1056.26 29.4476C1051.07 22.1835 1047.15 14.3606 1043.52 6.25832C1042.37 3.35267 1040.7 1.34107 1038.1 0H975.846C974.52 1.34107 973.367 2.68214 973.367 4.74962C973.367 9.38748 972.156 14.0253 972.272 18.8308C972.445 37.8852 973.252 56.9395 976.653 75.7145C978.901 88.1752 976.307 99.4067 970.254 110.191C962.818 123.378 956.592 137.18 950.828 151.373C941.778 173.389 933.707 195.964 922.813 217.197C916.299 229.826 908.805 242.007 898.832 252.177C889.206 262.235 877.504 267.823 864.073 267.823C863.323 267.823 862.632 267.823 861.825 267.767C849.777 267.04 838.536 262.961 828.102 256.423C808.676 244.13 790.691 230.049 772.245 216.303C757.776 205.575 744.691 193.226 733.047 179.312C719.731 163.387 711.084 144.612 703.244 125.613C690.505 94.8806 672.404 68.2827 650.326 44.1994C640.239 33.1356 631.477 21.1218 627.672 5.97893C627.038 3.35267 625.77 1.39695 623.579 0H552.907C551.235 1.67634 549.506 3.12916 548.526 5.42015C542.877 20.0043 533.135 31.1798 520.972 40.3438C506.734 51.0723 492.38 61.4656 479.41 73.8146C462.002 90.8015 446.783 109.465 432.891 129.413C420.901 146.959 406.951 162.157 389.773 174.507C381.184 180.765 373.286 188.085 365.85 195.74C347.346 214.515 331.033 235.134 313.97 255.194C303.709 267.32 294.313 280.395 287.223 294.923C272.408 324.594 268.2 357.059 266.702 389.804C265.491 412.155 269.007 434.059 274.368 455.572C278.461 471.944 281.977 488.372 281.401 505.583C280.594 531.566 273.907 555.649 260.13 577.497C246.468 599.234 226.466 608.174 202.947 608.174C201.736 608.174 200.41 608.174 199.2 608.063C181.849 607.392 165.189 602.251 149.625 594.261C135.33 586.941 122.302 577.721 109.447 568.11C79.126 545.424 45.1733 531.845 8.51136 525.028C6.83967 524.805 5.05268 524.134 3.20806 524.134C1.76694 524.134 0.383471 524.581 -1 525.866V585.991C0.325826 587.388 1.59401 588.394 3.49628 588.394H3.55392H3.89979C8.91487 588.394 13.8147 589.511 18.7721 589.679C30.7622 590.238 42.464 592.026 54.1082 595.267C73.0733 600.296 90.482 609.683 108.409 617.674C137.232 630.526 166.861 638.237 197.643 638.237C205.829 638.237 214.072 637.678 222.373 636.56C248.659 633.152 268.604 619.182 282.323 596.049C295.582 573.754 303.018 549.112 308.206 523.799C311.664 507.427 313.048 490.719 310.684 473.956C308.667 459.707 304.805 445.849 301.577 431.992C296.446 409.864 294.717 387.68 297.772 364.938C303.709 320.962 325.211 287.827 362.565 266.593C371.73 261.452 380.261 258.547 388.389 258.547C399.918 258.547 410.467 264.302 420.382 277.433C429.893 289.727 437.503 303.305 445.746 316.324C462.232 342.028 484.31 360.691 511.288 373.432C528.869 381.869 547.373 387.904 565.185 395.336C594.296 407.629 612.973 428.639 617.93 461.383C620.294 476.75 621.274 492.06 620.985 507.538C620.812 513.517 621.562 519.552 623.061 525.308C626.173 537.21 633.494 544.138 645.427 546.15C650.326 546.988 655.169 547.1 660.068 547.1H665.199H666.986C707.222 547.268 737.6 584.706 731.202 625.944C727.397 650.474 718.059 672.937 708.548 695.511C701.111 712.945 692.926 729.988 687.392 748.372C681.858 766.979 681.743 784.748 693.156 801.4C698.979 809.838 706.357 816.487 713.966 822.857C720.595 828.166 725.783 835.485 734.257 838H835.596ZM734.603 835.765C729.357 834.144 725.437 830.345 721.229 826.322C719.385 824.589 717.482 822.801 715.523 821.181C708.317 815.202 700.823 808.552 695.059 800.115C685.201 785.81 683.472 769.55 689.582 748.987C693.848 734.738 699.843 721.104 705.665 707.805C707.337 704.061 709.066 700.205 710.68 696.35C719.5 675.451 729.53 651.703 733.45 626.279C736.793 604.878 730.625 583.476 716.503 567.551C703.648 553.023 686.066 544.977 666.986 544.865H665.199H662.605H660.068C655.745 544.865 650.73 544.809 645.83 543.915C634.878 542.127 628.191 535.813 625.309 524.805C623.81 519.105 623.118 513.294 623.291 507.538C623.579 491.613 622.599 476.303 620.236 461.048C615.336 428.751 597.582 406.567 566.108 393.268C559.479 390.53 552.792 387.96 546.047 385.389C534.864 381.087 523.335 376.673 512.268 371.364C485.232 358.624 463.5 339.681 447.706 315.207C445.458 311.631 443.325 308.11 441.134 304.59C435.254 295.035 429.259 285.145 422.227 276.092C412.139 262.793 401.071 256.312 388.389 256.312C380.146 256.312 371.327 259.05 361.354 264.693C323.77 286.095 301.577 319.733 295.466 364.659C292.584 386.451 293.795 408.635 299.328 432.439C300.193 436.182 301.058 439.759 301.98 443.447C304.401 453.505 306.938 463.898 308.379 474.235C310.511 489.322 309.762 505.359 305.958 523.352C299.79 553.079 291.662 575.877 280.306 594.931C266.759 617.897 247.16 631.084 222.027 634.325C214.014 635.443 205.771 636.002 197.643 636.002C168.821 636.002 139.941 629.352 109.332 615.606C105.008 613.65 100.743 611.639 96.4194 609.683C83.0458 603.481 69.3264 597.055 54.7423 593.087C43.5016 589.958 31.6845 588.058 18.8874 587.444C16.6969 587.332 14.564 587.108 12.3735 586.829C9.66425 586.494 6.83967 586.103 3.49628 586.103C2.86219 586.103 2.2281 585.935 1.30578 585.153V526.928C1.88223 526.537 2.51632 526.369 3.20806 526.369C4.18802 526.369 5.22562 526.649 6.26322 526.872C6.89731 527.04 7.5314 527.207 8.0502 527.207C46.4992 534.304 79.1837 548.273 108.064 569.898C122.475 580.683 134.926 589.232 148.588 596.217C165.305 604.878 182.31 609.627 199.084 610.354C200.353 610.354 201.678 610.41 202.947 610.41C228.887 610.41 248.832 599.737 262.148 578.671C275.636 557.27 282.842 532.628 283.707 505.639C284.283 487.869 280.536 470.883 276.674 455.013C270.391 430.148 267.97 409.417 269.007 389.916C270.333 360.915 273.792 326.997 289.298 295.873C295.582 283.021 303.998 270.561 315.757 256.647C319.908 251.786 323.943 246.924 327.978 242.063C340.544 226.976 353.572 211.442 367.58 197.249C376.111 188.476 383.605 181.826 391.156 176.295C407.643 164.448 421.881 149.585 434.851 130.698C449.55 109.521 464.596 91.4162 481.024 75.4351C492.207 64.7624 504.659 55.3749 516.764 46.3227L522.355 42.076C536.075 31.7386 545.356 20.0043 550.659 6.20244C551.293 4.80549 552.388 3.68794 553.599 2.5145L553.829 2.23511H622.83C624.156 3.24091 624.963 4.58198 625.424 6.53771C629.632 23.1893 639.432 35.7059 648.597 45.6522C672.001 71.1325 689.179 97.6186 701.111 126.452C708.72 144.947 717.598 164.337 731.202 180.709C742.904 194.678 756.335 207.307 770.861 218.035L780.546 225.355C795.418 236.531 810.809 248.098 826.777 258.267C838.075 265.364 849.777 269.275 861.709 270.002C862.516 270.058 863.266 270.058 864.073 270.058C877.792 270.058 890.07 264.526 900.504 253.685C909.324 244.745 916.875 233.793 924.888 218.147C932.958 202.445 939.587 185.738 945.986 169.589C948.291 163.834 950.597 157.967 952.961 152.211C959.532 135.951 965.758 122.931 972.272 111.253C978.958 99.2949 981.149 87.5606 978.901 75.3792C975.384 55.7661 974.75 35.8177 974.52 18.775C974.52 16.4281 974.808 14.1371 975.096 11.6785C975.442 9.44336 975.73 7.09649 975.73 4.74962C975.73 3.74382 976.076 3.12916 976.883 2.23511H1037.47C1039.25 3.29679 1040.47 4.74962 1041.45 7.15236C1045.77 17.0427 1049.8 24.251 1054.36 30.7328C1067.62 49.5078 1086.41 60.4039 1111.77 63.9243C1117.36 64.8183 1122.9 64.8742 1128.32 64.8742C1131.77 64.8742 1135.29 64.9301 1138.81 65.1536C1144.97 65.6006 1151.26 65.88 1157.48 66.1035C1171.09 66.5505 1185.15 67.1093 1198.76 70.0708C1223.43 75.4351 1239.86 93.9865 1242.8 119.746C1244.64 135.168 1244.58 147.685 1242.51 159.14C1237.21 189.761 1216.45 211.554 1187.17 217.421C1180.54 218.762 1173.8 219.432 1167.28 219.432C1152.07 219.432 1136.79 215.8 1121.97 208.592C1111.89 203.731 1102.09 197.808 1092.63 192.052C1088.83 189.705 1085.02 187.358 1081.16 185.123C1075.17 181.603 1068.65 178.418 1061.33 175.401C1054.24 172.495 1046.92 170.986 1039.66 170.986C1028.48 170.986 1017.41 174.339 1005.65 181.156C992.447 188.811 981.034 200.099 969.851 216.694C959.763 231.725 951.635 248.265 943.91 264.302C941.662 268.996 939.357 273.69 936.993 278.439C932.612 287.324 927.77 294.756 922.063 301.349C913.474 310.904 902.176 315.822 886.323 316.771C884.421 316.883 882.634 316.939 880.905 316.939C857.789 316.939 836.288 307.999 815.19 289.615C804.814 280.507 794.38 271.455 784.004 262.458C765.443 246.365 746.996 230.328 728.493 214.124C709.989 197.696 694.194 177.021 681.57 152.602L680.878 151.317C672.289 134.61 663.412 117.399 649.174 104.268C630.727 86.9459 612.973 78.5084 593.316 77.782H591.76C578.213 77.782 566.338 83.705 555.501 96.1099C550.313 102.033 545.298 109.129 539.706 118.349C524.085 143.885 506.1 168.583 484.713 193.728C474.049 206.245 467.305 219.991 464.653 234.631C461.713 251.003 463.616 267.655 470.591 287.1C481.024 316.548 502.468 336.888 536.017 349.292C546.278 353.092 556.885 356.165 567.203 359.127C574.524 361.25 582.191 363.429 589.627 365.888C613.088 373.711 631.534 389.971 645.945 415.508C649.75 422.436 653.266 429.589 656.61 436.574C659.146 441.826 661.682 447.079 664.392 452.219C673.384 469.374 686.758 484.461 706.357 499.548C728.896 517.261 745.037 531.845 758.583 547.044C773.571 563.752 787.636 581.856 801.586 602.531C810.463 615.774 818.476 621.362 828.218 621.362C835.481 621.417 843.378 618.177 852.832 613.483C871.221 604.319 885.92 588.897 897.91 566.378C910.592 542.63 919.7 522.793 926.559 503.906C933.419 485.02 937.512 465.183 938.838 445.067C939.414 435.512 939.645 425.901 939.933 416.625C940.164 408.299 940.452 399.918 940.913 391.648C941.432 383.154 942.239 373.208 945.121 363.765C950.078 347.337 961.55 337.67 979.131 335.044C987.893 333.758 995.848 333.088 1003.46 333.088C1022.83 333.088 1039.49 337.39 1054.36 346.275C1071.36 356.445 1085.77 371.252 1097.19 390.363C1112.35 415.564 1121.34 443.726 1123.93 474.012L1124.57 481.276C1125.84 497.201 1127.22 513.685 1132.93 529.275C1137.77 542.462 1144.69 557.102 1160.02 565.484C1165.21 568.445 1169.76 570.177 1174.43 571.183C1176.33 571.574 1178.24 571.798 1180.08 571.798C1189.42 571.798 1196.85 566.49 1200.95 556.879C1205.44 546.262 1207.35 534.919 1209.25 523.911L1209.71 521.061C1213.46 499.716 1218.41 475.129 1230.23 452.722C1239.34 435.512 1249.43 421.151 1260.96 408.858C1272.31 396.844 1284.76 385.557 1296.81 374.717L1306.78 365.72C1320.56 353.092 1333.76 338.62 1349.79 318.839C1368 296.097 1383.8 277.489 1401.55 260.447C1410.54 251.841 1420.8 242.733 1433.66 231.781C1434.12 231.446 1434.52 230.943 1435.1 230.496C1436.02 229.602 1436.89 228.764 1437.69 228.652V333.367C1432.85 341.805 1425.42 347.84 1418.1 352.98C1402.3 364.379 1385.24 373.264 1369.27 381.031C1365 383.098 1360.8 385.11 1356.65 387.122C1339.29 395.336 1321.48 403.829 1305 414.614C1274.21 434.841 1255.19 459.651 1246.66 490.496C1243.49 501.839 1241.93 512.009 1241.93 521.62V527.207C1241.93 537.21 1241.93 547.659 1243.95 557.94C1248.1 579.341 1260.21 594.54 1279.86 602.922C1290.93 607.783 1302.63 611.024 1313.99 614.042C1317.33 614.936 1320.68 615.83 1323.96 616.78C1341.54 621.753 1364.6 628.905 1386.22 640.472C1412.27 654.441 1427.2 676.401 1431.76 707.805C1434.75 728.815 1431.18 748.595 1421.03 766.756C1415.1 777.317 1405.7 784.972 1390.94 791.51C1380.8 795.98 1369.85 798.83 1359.3 801.568C1356.65 802.182 1353.99 802.853 1351.34 803.579L1350.77 803.747C1342.52 805.982 1333.99 808.329 1325.92 811.682C1317.22 815.425 1309.78 821.628 1303.04 831.127C1301.71 832.859 1300.44 834.536 1298.89 835.765H1254.27C1252.77 834.089 1252.48 831.742 1252.25 829.06L1251.96 827.16C1250.58 816.599 1248.62 808.273 1245.91 800.785C1242.91 792.627 1237.32 787.598 1228.85 785.307C1219.16 782.681 1209.25 781.619 1199.33 780.613C1184.17 778.937 1168.95 777.708 1154.77 776.534C1149.59 776.199 1144.51 775.976 1139.9 775.976C1111.89 775.976 1090.27 783.016 1071.77 798.159C1062.2 806.094 1054.3 816.375 1046.81 830.624C1045.54 832.971 1044.56 834.759 1042.83 835.765H995.791C995.214 834.983 995.445 834.089 996.367 831.853C1001.9 817.381 1008.07 806.653 1015.85 798.047C1040.06 771.338 1066.64 754.518 1097.13 746.751C1104.16 744.908 1111.77 743.958 1121.11 743.734H1126.47C1129.76 743.734 1133.04 743.734 1136.33 743.734C1139.56 743.79 1142.84 743.846 1146.19 743.846C1152.35 743.846 1160.54 743.734 1168.84 742.617C1179.04 741.22 1190.57 738.873 1198.93 728.535C1201.75 724.959 1204.64 720.88 1205.85 715.851C1209.83 697.802 1214.96 652.933 1175.81 626.446L1169.53 622.256C1160.31 615.997 1150.8 609.683 1141.92 602.587C1118.8 583.923 1104.39 559.058 1099.15 528.604C1096.67 514.411 1096.09 500.33 1095.69 487.143C1095.29 469.765 1094.31 449.705 1087.68 430.651C1079.89 408.244 1068.71 391.815 1053.32 380.472C1042.43 372.258 1030.72 368.123 1018.62 368.123C1014.81 368.123 1011.01 368.514 1007.03 369.297C992.217 372.538 981.264 382.149 974.866 397.962C969.793 410.311 968.409 423.275 967.775 433.221C965.412 470.547 961.146 504.745 954.69 537.768C951.865 552.408 950.54 567.495 949.214 582.135L948.637 588.17C945.986 616.668 937.166 639.243 921.602 657.515C916.414 663.494 910.707 669.081 905.058 674.501C901.542 677.91 898.083 681.319 894.624 684.895C882.288 697.635 874.103 712.666 869.491 730.826C867.877 736.749 866.436 742.728 864.995 748.707C862.862 757.368 860.729 766.309 858.193 775.026C854.043 789.889 848.393 804.473 843.032 818.666C841.303 823.136 839.631 827.607 837.96 832.189C837.383 833.642 836.461 834.703 834.905 835.765H734.603" fill="#003CA7"/>
<mask id="mask0_0_4" style="mask-type:alpha" maskUnits="userSpaceOnUse" x="-1" y="0" width="288" height="333">
<path fill-rule="evenodd" clip-rule="evenodd" d="M-1 0H286.925V332.805H-1V0Z" fill="white"/>
</mask>
<g mask="url(#mask0_0_4)">
<path fill-rule="evenodd" clip-rule="evenodd" d="M4.13888 332.805C4.65913 332.805 5.23718 332.805 5.75742 332.693C17.3184 331.242 28.8216 329.567 40.267 327.501C79.69 320.131 112.986 301.651 138.94 269.939C145.53 261.899 151.484 253.357 156.571 244.257C170.848 218.295 175.646 189.821 178.363 160.677C180.039 142.42 181.6 124.163 186.86 106.409C191.889 89.5479 199.578 74.2501 213.682 63.1397C226.341 53.1459 240.272 45.2178 253.625 36.5081C265.591 28.8034 275.764 19.1446 284.493 7.86664C286.112 5.80088 288.308 3.1768 285.765 0.0502485H229.694C224.145 2.00435 218.249 2.56266 212.468 4.07011C208.537 5.18673 204.607 5.74505 200.676 5.74505C193.566 5.74505 186.629 3.84678 179.924 0.0502485C120.963 0.0502485 61.8283 0.0502485 2.86717 -0.00558281C-0.312103 -0.00558281 -1.06357 0.720225 -1.00576 3.95844C-0.774542 15.348 -0.947957 26.8493 -0.947957 38.2389C0.670582 40.3046 2.75156 40.863 4.83254 40.863C5.81523 40.863 6.85572 40.7513 7.8384 40.5838C12.2894 39.858 16.6826 39.858 21.0179 39.858C26.625 39.858 32.1743 39.8022 37.7814 39.8022C48.6487 39.8022 59.4004 39.9697 70.1522 40.9188C85.7595 42.4262 101.367 44.3245 116.338 49.2935C129.113 53.5925 136.917 62.4697 140.212 76.0367C143.969 92.0603 144.836 108.307 145.472 124.554C146.339 140.578 147.033 156.434 145.992 172.457C144.432 195.292 139.923 217.067 128.709 236.943C115.067 261.229 95.9332 278.649 69.6319 287.637C57.0304 291.936 44.2555 292.941 31.4806 292.941C24.1972 292.941 16.7982 292.606 9.45694 292.327C7.8384 292.216 6.27767 291.992 4.77474 291.992C2.69376 291.992 0.728387 292.439 -0.947957 294.449V330.404C0.497167 332.191 2.23132 332.805 4.13888 332.805M4.13888 330.572C2.92498 330.572 2.11571 330.293 1.36424 329.567V295.286C2.23132 294.505 3.214 294.226 4.77474 294.226C5.58401 294.226 6.45108 294.337 7.37596 294.449C7.95401 294.449 8.64767 294.505 9.34133 294.561L12.8674 294.672C19.1104 294.951 25.2955 295.175 31.4806 295.175C42.1168 295.175 56.1056 294.561 70.3834 289.759C96.4534 280.826 116.107 263.965 130.732 238.059C140.848 219.97 146.455 199.145 148.304 172.625C149.345 156.434 148.651 140.578 147.784 124.442C147.091 107.023 146.166 91.3345 142.466 75.5901C138.998 61.2414 130.501 51.6942 117.09 47.1719C101.309 41.9238 84.719 40.0813 70.3834 38.6855C59.1692 37.7364 48.1285 37.5689 37.7814 37.5689L29.3997 37.6247H21.0179C16.6248 37.6247 12.116 37.6247 7.54937 38.3505C6.6245 38.518 5.69962 38.5739 4.83254 38.5739C3.27181 38.5739 2.28912 38.2389 1.36424 37.4014V27.9659C1.42205 19.9262 1.47985 11.9423 1.30644 3.90261C1.30644 2.78598 1.36424 2.39516 1.30644 2.33933C1.42205 2.33933 1.82668 2.22767 2.86717 2.22767C61.597 2.2835 120.558 2.2835 179.288 2.2835C186.109 6.0242 193.335 7.9783 200.676 7.9783C204.78 7.9783 208.942 7.36415 213.104 6.1917C215.358 5.63338 217.67 5.18673 219.983 4.74008C223.335 4.07011 226.804 3.45596 230.099 2.2835H284.493C284.84 3.40013 284.32 4.40509 282.585 6.52668C273.857 17.8604 263.683 27.3518 252.353 34.6657C248.712 37.0106 245.012 39.3555 241.371 41.6446C231.601 47.786 221.543 54.095 212.237 61.4089C199.404 71.4585 190.676 85.5839 184.664 105.851C179.461 123.214 177.843 141.304 176.224 158.89L176.051 160.454C173.507 187.699 169.114 216.62 154.547 243.252C149.692 251.961 143.796 260.448 137.148 268.599C112.408 298.804 79.69 317.842 39.8046 325.324C29.9199 327.11 19.0526 328.785 5.41059 330.46C5.00596 330.572 4.54352 330.572 4.13888 330.572" fill="#003CA7"/>
</g>
<path fill-rule="evenodd" clip-rule="evenodd" d="M306 838H330.26C333.602 836.482 334.409 833.278 335.1 829.961C339.019 811.746 346.683 795.162 355.5 779.14C368.523 755.809 381.892 732.928 394.569 709.486C403.789 692.283 413.7 675.305 428.337 662.206C443.838 648.32 461.068 638.595 481.697 638.595C483.311 638.595 484.924 638.651 486.653 638.819C502.788 639.944 516.445 646.859 526.702 660.126C539.207 676.261 544.047 695.375 547.044 715.22C549.522 731.635 550.328 748.164 551.481 764.804C552.979 787.291 556.379 809.441 559.606 831.647C560.125 834.514 561.392 836.313 563.294 838H617C614.753 825.463 610.719 813.601 605.187 802.414C592.567 777.003 584.212 750.244 578.91 722.191C574.819 700.94 570.958 679.521 563.755 659.002C559.894 647.758 555.572 636.627 547.505 627.913C533.329 612.678 516.099 607 497.602 607C492.761 607 487.806 607.394 482.792 608.124C445.279 613.465 416.351 634.884 393.071 665.298C381.258 680.758 371.462 697.68 361.608 714.489C347.086 739.056 331.182 762.78 319.888 789.371C313.261 804.831 307.786 820.853 306 838M308.593 835.751C310.322 821.978 314.471 807.811 322.02 790.215C330.663 769.92 342.188 750.918 353.367 732.591C356.825 726.969 360.225 721.291 363.625 715.613L364.835 713.589C374.055 697.792 383.678 681.32 394.915 666.591C420.154 633.647 449.024 615.208 483.138 610.373C488.151 609.642 493.049 609.305 497.602 609.305C517.425 609.305 533.156 615.882 545.834 629.375C553.728 637.92 557.935 649.107 561.565 659.789C568.192 678.622 572.053 698.635 575.798 718.087L576.663 722.584C582.31 752.549 590.954 778.971 603.112 803.426C608.299 813.826 612.044 824.733 614.292 835.751H564.216C562.89 834.402 562.199 833.109 561.911 831.31L561.392 827.656C558.338 807.08 555.169 785.773 553.786 764.635L553.267 757.383C552.345 743.441 551.423 729.049 549.349 714.939C546.583 696.893 542.03 676.148 528.546 658.777C518.116 645.172 504.113 637.695 486.826 636.514C485.04 636.402 483.369 636.346 481.697 636.346C462.912 636.346 444.933 644.329 426.781 660.576C411.568 674.181 401.484 691.664 392.552 708.417C384.715 722.865 376.533 737.37 368.523 751.368C363.509 760.25 358.438 769.133 353.483 778.072C342.649 797.748 336.253 813.601 332.853 829.567C332.162 832.828 331.47 834.683 329.684 835.751H308.593" fill="#003CA7"/>
<path fill-rule="evenodd" clip-rule="evenodd" d="M90.5702 838H161C158.645 829.627 156.404 821.254 152.785 813.383C140.262 786.198 121.247 765.041 97.3489 748.686C82.1255 738.359 65.6383 733 48.1745 733C43.2915 733 38.3511 733.391 33.2957 734.228C21.8638 736.182 10.3745 738.024 -1 739.866V817.29C1.52766 819.691 4.34255 820.249 7.21489 820.249C9.85745 820.249 12.5574 819.746 15.1426 819.579C23.7021 819.132 32.2617 818.407 40.8213 818.407C44.2106 818.407 47.6574 818.518 51.1043 818.797C63.6277 819.914 74.9447 824.1 84.0787 833.423C86.0319 835.432 88.2149 836.828 90.5702 838M91.1447 835.767C89.3638 834.762 87.4106 833.646 85.7447 831.915C76.8404 822.817 65.5234 817.848 51.2191 816.565C48.0021 816.285 44.5553 816.174 40.8213 816.174C34.1574 816.174 27.2638 816.62 20.7149 817.067L15.0277 817.402C13.8787 817.402 12.7872 817.569 11.5809 817.737C10.1447 817.848 8.65106 818.072 7.21489 818.072C4.68723 818.072 2.90638 817.514 1.29787 816.285V741.764L7.84681 740.759L33.6979 736.461C38.5809 735.624 43.4064 735.177 48.1745 735.177C64.9489 735.177 81.0915 740.368 96.0277 750.584C120.5 767.219 138.94 788.71 150.717 814.276C153.877 821.086 155.887 828.231 157.955 835.767H91.1447" fill="#003CA7"/>
<path fill-rule="evenodd" clip-rule="evenodd" d="M1440 149V70.7694C1438.38 68.1525 1437.8 64.923 1435.3 62.9185C1426.9 55.9585 1418.66 49.1099 1409.1 43.7646C1392.05 34.0206 1373.5 28.9537 1355.23 22.4391C1344.91 18.7642 1334.65 14.9223 1326.18 7.40546C1322.94 4.45441 1319.81 1.6704 1315.81 0H1266C1266.41 22.7175 1279.8 41.7601 1301.31 49.2212C1317.08 54.5665 1333.03 59.1323 1348.8 64.4776C1366.77 70.7694 1383.12 80.068 1396.75 93.5426C1406.31 103.064 1413.91 114.144 1421.91 124.946C1427.88 133.02 1432.81 141.873 1440 149M1437.68 143.098C1434.61 139.423 1431.94 135.47 1429.27 131.628C1427.48 128.955 1425.68 126.283 1423.82 123.666L1419.88 118.432C1413.33 109.411 1406.55 100.113 1398.37 91.9836C1385.38 79.0658 1368.92 69.099 1349.55 62.3617C1341.43 59.6334 1333.26 57.0721 1325.02 54.5108C1317.43 52.1166 1309.72 49.7223 1302.12 47.1054C1282.35 40.3124 1269.65 23.1629 1268.38 2.2272H1315.28C1318.65 3.78625 1321.49 6.23617 1324.62 9.02018C1333.03 16.5927 1343.11 20.4903 1354.42 24.4993C1358.71 26.0026 1362.94 27.4503 1367.18 28.898C1380.8 33.5194 1395.01 38.3079 1407.88 45.7134C1417.56 51.1143 1426.2 58.2971 1433.85 64.5889C1434.96 65.5912 1435.65 67.0389 1436.41 68.7649C1436.75 69.6001 1437.22 70.491 1437.68 71.3262V143.098" fill="#003CA7"/>
<path fill-rule="evenodd" clip-rule="evenodd" d="M208.833 838C210.907 835.043 209.754 832.141 208.948 829.184C202.898 807.48 191.087 789.067 177.951 771.324C166.716 756.148 154.271 741.697 144.074 725.516C139.004 717.593 134.74 709.391 132.839 699.906C131.168 691.202 132.781 683.892 139.925 678.145C143.958 674.854 148.452 673.012 153.177 671.673C168.906 667.098 185.038 666.596 201.055 665.312C214.248 664.308 227.442 663.36 240.29 660.681C269.443 654.711 291.682 639.368 304.07 610.354C317.839 578.215 327.231 544.627 334.951 510.48C340.54 485.372 340.194 460.487 333.05 435.769C329.478 422.825 325.963 409.824 324.753 396.433C322.564 371.325 326.078 347.78 342.844 328.139C352.696 316.646 365.026 310.006 377.701 310.006C386.689 310.006 395.907 313.354 404.549 320.719C411.982 327.191 418.78 334.221 425.175 341.698C436.18 354.252 447.76 366.136 460.897 376.179C475.012 386.781 490.568 394.815 506.009 403.073C519.894 410.438 534.01 417.357 546.397 427.623C560.858 439.508 568.117 454.851 567.368 473.933C566.677 492.681 561.549 510.368 554.52 527.553C546.454 547.137 533.03 560.64 512.635 566.443C498.922 570.237 485.152 574.142 471.786 579.164C428.46 595.512 391.529 621.68 362.203 658.394C329.535 699.236 304.53 745.044 282.406 792.638C276.933 804.244 272.67 816.295 269.385 828.794C268.579 831.918 267.196 835.043 269.962 838H304.761C307.065 836.047 307.814 833.202 308.448 830.356C313.115 807.368 321.93 786.11 333.28 765.912C346.704 742.31 360.993 719.155 375.108 696C386.747 676.751 399.249 658.171 416.764 643.72C439.291 625.084 463.893 611.749 493.334 611.749C494.544 611.749 495.753 611.749 496.963 611.86C528.939 613.088 547.146 627.148 557.343 653.819C564.833 673.403 569.154 693.768 573.13 714.189C578.2 740.469 584.077 766.414 595.542 790.574C601.995 804.523 608.621 818.304 612.365 833.369C612.769 835.601 614.497 836.494 615.765 838H733.875C729.438 833.871 725.002 829.742 720.623 825.558C712.5 817.969 703.224 811.553 696.598 802.123C689.684 792.582 685.017 782.093 685.766 769.985C686.458 757.208 690.26 745.044 695.042 733.272C703.166 713.241 712.039 693.434 720.105 673.347C727.883 654.042 734.163 634.29 733.99 612.865C733.644 582.791 712.615 554.893 684.499 547.361C674.186 544.515 663.931 545.519 653.56 544.85C635.123 543.566 627.403 539.214 624.119 519.24C621.757 505.179 623.888 491.007 622.275 476.835C620.662 463.109 618.53 449.551 613.057 436.885C603.608 415.125 586.324 402.292 565.755 393.532C543.228 383.935 519.663 376.961 498.288 364.462C482.099 354.921 467.868 343.148 456.345 327.749C443.612 311.122 434.509 291.816 421.2 275.58C411.233 263.249 402.187 257 389.685 257C384.557 257 378.853 258.004 372.343 260.18C352.351 266.485 336.91 280.323 323.774 296.336C296.752 329.479 290.242 368.703 294.678 410.717C296.349 425.893 300.843 440.512 304.242 455.298C307.93 471.869 310.177 488.385 308.16 505.402C304.242 537.764 295.37 568.284 279.18 596.182C269.558 612.976 255.5 624.972 237.179 630.663C224.907 634.569 212.347 636.131 199.672 636.131C193.68 636.131 187.573 635.741 181.523 635.127C152.024 632.17 124.024 623.745 97.5786 609.907C67.331 594.229 35.6429 586.362 1.99596 586.362H-1V739.911C0.152293 741.474 1.59266 741.864 3.20587 741.864C3.83963 741.864 4.47339 741.808 5.16477 741.697C13.0004 740.469 20.7207 738.795 28.4987 737.568C35.3548 736.564 42.0957 735.894 48.8367 735.894C58.804 735.894 68.6561 737.4 78.3354 741.529C96.772 749.62 112.155 761.839 125.81 776.848C140.386 792.973 151.448 811.274 157.21 832.755C157.844 835.099 159.169 836.884 161.416 838H208.833ZM161.992 835.768C160.667 834.987 159.86 833.871 159.457 832.197C153.926 811.609 143.498 793.085 127.538 775.397C112.558 758.882 96.772 747.109 79.2572 739.465C70.0388 735.559 60.0715 733.662 48.8367 733.662C42.6143 733.662 36.0462 734.22 28.153 735.336C24.0048 736.006 19.8565 736.787 15.7659 737.512C12.0785 738.237 8.50642 738.963 4.76146 739.465C4.18532 739.576 3.7244 739.688 3.20587 739.688C2.34165 739.688 1.7655 739.465 1.30459 739.074V588.538H1.99596C35.3548 588.538 66.2939 596.182 96.484 611.86C123.102 625.809 151.679 634.402 181.293 637.359C187.63 638.028 193.795 638.363 199.672 638.363C213.557 638.363 226.059 636.522 237.928 632.784C256.365 627.037 270.941 615.041 281.196 597.298C296.695 570.572 306.259 540.609 310.465 505.625C312.193 490.672 311.041 474.994 306.489 454.851C305.51 450.722 304.473 446.538 303.436 442.409C300.843 432.031 298.135 421.262 297.041 410.494C292.143 364.183 301.477 327.303 325.617 297.675C341 278.872 356.096 267.657 373.092 262.301C379.429 260.236 384.845 259.232 389.685 259.232C400.632 259.232 409.216 264.365 419.414 276.975C426.501 285.623 432.493 295.332 438.369 304.761C443.382 312.907 448.567 321.332 454.501 329.088C465.448 343.762 479.448 355.926 497.079 366.359C511.77 374.952 527.614 381.09 542.997 386.892C550.199 389.682 557.632 392.528 564.833 395.541C588.052 405.472 602.686 418.863 610.925 437.722C616.456 450.722 618.53 464.895 619.971 477.114C620.72 483.419 620.72 489.947 620.662 496.196C620.604 503.896 620.547 511.707 621.872 519.574C625.444 541.335 634.893 545.742 653.387 547.026C656.613 547.249 659.782 547.305 662.951 547.361C670.211 547.472 677.009 547.584 683.865 549.481C710.829 556.678 731.397 583.962 731.57 612.92C731.858 634.848 724.829 655.381 717.973 672.51C713.594 683.446 708.985 694.27 704.376 705.039C700.458 714.134 696.598 723.228 692.911 732.379C687.092 746.718 684.096 758.659 683.462 769.818C682.771 781.088 686.285 791.801 694.697 803.462C699.479 810.214 705.586 815.459 711.463 820.48C714.055 822.712 716.59 824.888 719.068 827.231C722.006 830.021 725.06 832.867 728.171 835.768H616.744C616.571 835.601 616.398 835.378 616.226 835.21C615.304 834.317 614.785 833.815 614.612 832.867C610.983 818.248 604.645 804.69 598.538 791.578L597.616 789.681C585.805 764.796 579.986 737.4 575.434 713.799C571.574 694.047 567.138 673.012 559.475 653.093C548.701 624.693 528.882 610.912 497.079 609.573H493.334C466.888 609.573 442.057 619.839 415.208 641.934C398.385 655.883 386.228 673.235 373.149 694.94L367.907 703.421C355.692 723.396 343.017 744.04 331.264 764.852C318.761 787.059 310.58 808.373 306.201 829.854C305.683 832.197 305.164 834.318 303.839 835.768H271.056C270.307 834.429 270.653 832.867 271.287 830.523L271.632 829.352C274.917 816.742 279.238 804.634 284.481 793.531C311.099 736.564 335.585 695.275 364.046 659.845C392.566 624.08 429.093 597.632 472.592 581.228C486.42 576.039 501.284 571.855 513.211 568.563C533.721 562.704 547.895 549.648 556.652 528.278C564.949 508.248 569.039 490.895 569.673 473.989C570.422 454.628 563.105 438.447 547.895 425.893C536.775 416.687 524.215 410.103 512.001 403.743L507.161 401.12L503.935 399.39C489.877 391.914 475.3 384.158 462.337 374.394C451.044 365.801 439.81 354.977 426.962 340.303C420.048 332.268 413.249 325.294 406.047 319.045C397.405 311.68 387.611 307.774 377.701 307.774C364.565 307.774 351.602 314.47 341.058 326.745C325.79 344.655 319.856 366.862 322.449 396.601C323.659 409.824 327 422.49 330.86 436.327C337.774 460.487 338.35 484.59 332.704 509.977C323.601 550.039 313.864 581.675 301.88 609.461C290.472 636.299 270.192 652.312 239.772 658.505C228.133 660.905 215.919 661.909 204.166 662.857L200.939 663.081L193.622 663.639C180.083 664.643 166.082 665.591 152.543 669.497C148.452 670.725 143.267 672.566 138.485 676.416C131.168 682.274 128.633 690.142 130.592 700.352C132.724 711.065 137.909 720.104 142.115 726.743C149.029 737.679 157.037 748.002 164.815 757.877C168.617 762.787 172.362 767.697 176.107 772.607C188.322 789.179 200.536 807.536 206.701 829.742L206.989 830.691C207.623 832.923 208.026 834.429 207.507 835.768H161.992" fill="black"/>
<path fill-rule="evenodd" clip-rule="evenodd" d="M834 838H885.641C889.618 835.935 890.598 831.692 892.154 827.841C897.053 815.895 904.315 805.569 913.248 796.359C915.842 793.679 918.839 790.944 922.585 790.944C923.45 790.944 924.314 791.112 925.294 791.447C930.251 793.121 930.712 798.089 931.634 802.443C933.594 811.653 932.268 820.863 932.671 830.129C932.844 833.032 932.556 836.046 935.207 838H993.188C996.012 826.78 1001.26 816.733 1007.71 807.355C1019.47 790.051 1035.26 776.934 1052.61 766.049C1069.96 755.052 1088.52 747.014 1109.03 745.005C1115.78 744.335 1122.41 744.167 1129.15 744.167C1135.37 744.167 1141.54 744.335 1147.71 744.335C1149.78 744.335 1151.8 744.335 1153.82 744.223C1162.69 744.112 1171.4 743.274 1179.81 740.651C1193.41 736.353 1202.46 727.143 1205.29 712.295C1207.3 702.247 1207.3 692.367 1206.5 682.096C1204.82 659.88 1195.37 642.632 1178.37 629.626C1168.34 621.923 1157.74 615.057 1147.48 607.8C1121.25 589.324 1104.94 564.15 1098.37 531.998C1094.4 512.126 1094.68 492.031 1093.59 471.936C1092.32 450.78 1088.4 430.518 1078.14 412.042C1065.81 389.714 1049.44 372.912 1023.45 368.614C1020.97 368.223 1018.49 368 1016.07 368C996.531 368 978.664 380.615 972.094 399.985C967.31 414.777 965.984 430.127 964.832 445.477C963.564 462.391 962.699 479.527 959.76 496.329C954.169 529.709 948.809 563.089 945.582 596.86C943.046 622.983 932.095 645.702 913.882 664.011C905.756 672.216 897.399 680.366 889.387 688.739C882.183 696.274 876.592 704.982 872.788 714.918C867.544 728.091 864.489 741.935 861.492 755.666C855.037 784.134 843.798 810.872 834 838M837.285 835.767L842.991 820.249C850.714 799.652 858.725 778.273 863.74 755.945C866.679 742.549 869.791 728.705 874.979 715.7C878.552 706.21 884.027 697.67 891.059 690.302C896.073 684.999 901.203 679.863 906.39 674.728C909.444 671.714 912.499 668.644 915.496 665.574C934.4 646.539 945.293 623.542 947.887 597.083C951.23 562.252 956.936 526.974 962.065 496.664C964.486 482.765 965.466 468.419 966.503 454.576L967.137 445.645C968.175 431.578 969.443 415.558 974.399 400.71C980.451 382.457 997.223 370.233 1016.07 370.233C1018.37 370.233 1020.74 370.4 1022.99 370.791C1045.41 374.475 1062.24 387.928 1076.13 413.102C1085.06 429.346 1089.84 448.101 1091.28 472.103C1091.57 477.239 1091.8 482.486 1092.03 487.677C1092.49 502.302 1093.07 517.596 1096.12 532.388C1102.75 564.931 1119.58 590.887 1146.15 609.587L1156.99 617.122C1163.62 621.7 1170.42 626.388 1176.87 631.356C1193.64 644.139 1202.58 660.773 1204.13 682.208C1205.11 694.042 1204.77 703.14 1202.98 711.848C1200.39 725.356 1192.43 734.343 1179.12 738.474C1172.03 740.762 1163.96 741.823 1153.82 742.046H1147.71H1138.43C1135.37 741.935 1132.2 741.935 1129.15 741.935C1123.56 741.935 1116.3 742.046 1108.86 742.828C1089.84 744.67 1071.05 751.647 1051.34 764.207C1030.88 777.101 1016.36 790.442 1005.75 806.183C998.779 816.286 994.053 825.999 991.344 835.767H936.072C935.207 834.707 935.092 833.311 934.977 831.134V830.018C934.861 826.892 934.861 823.766 934.977 820.64C935.092 814.556 935.207 808.304 933.882 801.996L933.651 800.713C932.787 796.47 931.692 791.279 926.043 789.27C924.833 788.935 923.738 788.711 922.585 788.711C917.917 788.711 914.459 791.893 911.577 794.852C901.779 804.843 894.805 815.449 890.021 827.115L889.272 828.901C888.235 831.804 887.255 834.372 885.007 835.767H837.285" fill="#003CA7"/>
<path fill-rule="evenodd" clip-rule="evenodd" d="M863.96 270C873.604 270 882.789 267.322 891.343 261.073C899.839 254.879 906.613 246.9 912.641 238.084C926.878 216.882 935.891 193.056 945.363 169.399C953.457 149.312 961.494 129.169 972.057 110.31C978.199 99.3738 980.381 87.8239 978.142 75.3255C974.812 56.1872 973.722 36.7142 973.836 17.4086C973.951 11.6615 975.157 5.91444 974.87 0H905.522C901.16 2.67824 899.38 7.42095 896.797 11.3267C890.08 21.7607 883.306 32.3063 879.058 44.1352C867.003 78.0595 864.591 113.156 867.634 149.033C868.667 161.085 870.217 173.193 868.208 185.301C865.854 200.198 854.775 209.74 840.997 209.74C839.62 209.74 838.299 209.628 836.864 209.461C818.264 206.95 801.501 199.473 785.485 190.043C775.381 184.017 766.426 176.541 758.446 167.725C745.128 152.604 736 134.861 730.202 115.387C719.64 80.2356 710.282 44.7489 703.164 8.53689C702.475 5.18909 702.188 1.6739 698.571 0H624C626.354 11.0477 630.143 21.5933 636.744 30.8555C642.772 39.225 649.489 47.0924 656.32 54.8481C667.744 67.7929 677.962 81.4073 686.401 96.7514C696.562 114.885 704.025 134.414 713.325 153.218C723.141 173.025 736.804 189.43 752.821 203.602C774.348 222.629 797.942 239.256 821.536 255.325C830.377 261.463 839.734 266.094 850.297 268.382C854.89 269.386 859.482 270 863.96 270M863.96 267.768C859.827 267.768 855.406 267.21 850.814 266.206C841.399 264.141 832.214 259.957 822.799 253.484C800.066 238.029 776.013 221.066 754.371 201.928C737.149 186.696 724.462 170.459 715.391 152.269C711.717 144.848 708.273 137.148 704.943 129.727C699.892 118.4 694.668 106.683 688.41 95.6913C680.66 81.5189 670.672 67.6813 658.042 53.3416C652.014 46.4786 644.953 38.3323 638.639 29.5722C633.3 22.1513 629.454 13.168 626.87 2.23187H697.997C699.834 3.292 700.179 5.0775 700.753 8.09051L700.925 8.98326C707.412 41.9591 716.31 76.9436 727.964 115.945C734.221 136.813 743.923 154.78 756.724 169.175C764.819 178.159 774.119 185.859 784.279 191.996C803.281 203.211 819.929 209.461 836.577 211.692C838.07 211.86 839.505 211.971 840.997 211.971C856.095 211.971 867.978 201.426 870.447 185.691C872.284 175.09 871.365 164.433 870.39 154.222L869.93 148.865C866.601 109.752 870.217 75.7161 881.239 44.9163C885.373 33.4222 892.032 22.9324 898.691 12.5542C899.38 11.5499 900.011 10.4898 900.643 9.42963C902.25 6.58401 903.743 3.96156 906.211 2.23187H972.631C972.631 4.85431 972.344 7.47675 972.057 9.9876C971.827 12.4984 971.598 14.8977 971.483 17.4086C971.368 39.1135 972.803 58.1959 975.846 75.7161C977.97 87.5449 976.075 98.5369 970.048 109.194C959.714 127.551 951.735 147.415 944.042 166.553L943.239 168.617L941.115 173.974C932.561 195.344 923.72 217.495 910.689 236.801C903.972 246.677 897.428 253.819 889.965 259.287C882.1 264.978 873.662 267.768 863.96 267.768" fill="#003CA7"/>
<path fill-rule="evenodd" clip-rule="evenodd" d="M1435.75 838C1439.48 838 1440 836.829 1440 833.094C1439.89 748.415 1439.94 663.569 1439.94 578.779C1439.02 577.664 1437.93 577.274 1436.9 577.274C1435.64 577.274 1434.37 577.776 1433.05 578.222C1425.41 580.619 1417.95 583.741 1410.19 585.859C1397.16 589.204 1384.29 590.765 1371.6 590.765C1351.04 590.765 1330.94 586.584 1311.24 578.445C1283.96 567.184 1272.48 545.554 1273.45 518.016C1274.26 493.376 1285.17 473.809 1303.89 459.092C1324.57 442.869 1348.06 437.629 1372.46 437.629C1377.86 437.629 1383.26 437.908 1388.77 438.354C1403.76 439.58 1418.35 443.761 1433.05 446.995C1434.26 447.218 1435.41 447.608 1436.55 447.608C1437.76 447.608 1438.91 447.218 1439.94 446.047V335C1434.03 337.843 1430.64 343.752 1425.7 347.822C1413.7 357.633 1400.66 365.605 1386.94 372.74C1364.25 384.336 1341.22 395.373 1318.54 407.192C1296.77 418.452 1278.16 434.061 1263.98 454.52C1242.62 485.46 1238.82 520.301 1244.17 556.759C1247.67 580.953 1261.34 596.506 1283.1 605.036C1297.75 610.778 1312.91 614.401 1327.96 618.582C1349.38 624.714 1370.45 632.017 1390.04 643.333C1399.4 648.797 1408.18 655.486 1414.33 664.517C1431.33 689.157 1436.67 716.473 1429.26 746.13C1424.09 766.645 1412.78 781.696 1393.48 790.058C1385.38 793.514 1377.11 796.469 1368.62 798.699C1353.86 802.545 1338.75 805.333 1324.8 811.855C1313.71 817.262 1304.52 825.234 1300.16 837.889H1367.87C1390.44 837.889 1413.01 837.889 1435.52 838H1435.75ZM1435.75 838L1435.52 835.77C1413.01 835.659 1390.44 835.603 1367.87 835.603L1334.04 835.659H1303.49C1307.57 826.349 1314.86 819.158 1325.83 813.918C1336.45 808.956 1348.06 806.113 1359.31 803.326C1362.64 802.49 1365.92 801.765 1369.25 800.873C1377.52 798.699 1385.73 795.8 1394.4 792.065C1413.53 783.759 1425.99 768.54 1431.5 746.632C1438.91 716.807 1433.8 688.711 1416.22 663.235C1410.65 655.04 1402.67 648.128 1391.24 641.494C1374.19 631.571 1354.89 623.878 1328.59 616.464C1325.26 615.572 1321.93 614.624 1318.54 613.732C1307.11 610.666 1295.22 607.377 1283.96 602.973C1262.03 594.332 1249.74 579.114 1246.46 556.425C1240.61 516.176 1246.92 483.285 1265.87 455.858C1279.43 436.236 1297.58 420.571 1319.69 409.198C1332.89 402.286 1346.5 395.541 1359.71 388.907C1369.13 384.224 1378.67 379.541 1388.08 374.691C1403.47 366.72 1416.22 358.469 1427.25 349.494C1429.2 347.877 1430.93 345.982 1432.53 344.198C1434.26 342.303 1435.87 340.575 1437.65 339.125V445.043C1437.3 445.266 1436.96 445.378 1436.55 445.378C1435.87 445.378 1435.06 445.155 1434.26 444.932L1433.63 444.82C1430.01 444.096 1426.56 443.204 1423 442.368C1411.97 439.748 1400.55 437.072 1388.95 436.124C1383.14 435.678 1377.75 435.455 1372.46 435.455C1344.21 435.455 1321.29 442.646 1302.46 457.363C1282.53 473.028 1271.96 493.376 1271.1 517.904C1270.07 547.84 1283.68 569.469 1310.32 580.507C1330.42 588.758 1350.98 592.994 1371.6 592.994C1384.52 592.994 1397.73 591.322 1410.71 588.033C1415.48 586.751 1420.19 585.078 1424.67 583.462C1427.65 582.347 1430.7 581.288 1433.8 580.284L1434.49 580.061C1435.35 579.783 1436.21 579.504 1436.9 579.504C1437.07 579.504 1437.3 579.504 1437.65 579.727V648.351C1437.65 709.95 1437.59 771.606 1437.7 833.094C1437.7 834.934 1437.53 835.491 1437.47 835.603C1437.47 835.603 1437.13 835.77 1435.75 835.77V838V838Z" fill="black"/>
<path fill-rule="evenodd" clip-rule="evenodd" d="M827.229 622C830.057 622 833 621.553 836.117 620.603C855.738 614.232 872.417 603.39 885.055 586.289C896.886 570.25 905.081 552.144 913.795 534.372C931.051 498.997 939.938 461.666 939.534 421.876C939.419 405.893 940.169 389.686 942.65 373.703C945.94 352.578 955.924 340.507 976.122 336.036C984.491 334.248 992.916 333.354 1001.28 333.354C1010.98 333.354 1020.56 334.528 1030.02 336.987C1063.38 345.872 1084.91 369.344 1101.35 399.019C1117.46 428.191 1122.71 460.213 1125.25 493.017C1126.57 510.565 1129.98 527.498 1138.23 543.202C1145.85 557.62 1157.1 567.009 1172.17 571.312C1174.94 572.095 1177.53 572.43 1180.01 572.43C1189.65 572.43 1197.04 566.618 1201.31 556.056C1207.31 541.358 1208.98 525.487 1211.81 510.062C1217.47 477.928 1229.41 448.757 1249.04 423.161C1264.96 402.484 1284.82 385.774 1304.03 368.506C1318.69 355.149 1332.08 340.731 1344.84 325.362C1357.24 310.497 1369.3 295.464 1382.12 280.99C1399.78 261.206 1419.8 243.882 1440 227.061V149.548C1438.15 146.307 1437.46 142.507 1435.09 139.321C1428.46 130.156 1421.76 121.159 1415.3 111.882C1398.22 87.3482 1375.6 70.8063 1347.84 61.25C1334.27 56.6115 1320.48 52.9231 1306.98 48.3964C1287.41 41.802 1274.02 29.4514 1270.33 7.8239C1269.75 4.91788 1269.23 1.95597 1266.81 0H1220.35C1217.93 1.39712 1216.14 3.12956 1214.99 5.75615C1210.89 14.4742 1204.31 20.5098 1195.48 23.8629C1181.75 28.7808 1167.84 31.4074 1153.87 31.4074C1143.94 31.4074 1133.9 30.0102 1123.92 27.216C1110.65 23.5835 1099.1 16.8214 1091.49 4.4708C1090.16 2.34717 1088.08 1.39712 1086.18 0H1037.64C1040.35 6.09146 1042.95 12.3506 1046.01 18.3303C1057.49 41.0755 1075.21 55.8291 1099.57 62.2C1118.38 67.2297 1137.65 65.2737 1156.7 66.2796C1171.36 67.2296 1185.9 67.6767 1200.1 71.0857C1219.95 75.7801 1233.63 87.4041 1239.63 107.69C1243.73 121.326 1244.36 135.353 1243.26 149.269C1242.4 160.781 1240.15 172.014 1234.55 182.241C1219.14 209.569 1194.56 219.181 1165.7 219.181H1165.47C1148.56 219.013 1132.11 214.375 1116.99 205.88C1101.3 196.995 1085.83 187.606 1069.96 178.888C1059.63 173.299 1049.41 170.561 1039.14 170.561C1027.08 170.561 1015.13 174.361 1003.3 181.85C989.165 190.68 978.316 202.807 968.966 216.666C956.27 235.332 947.036 256.009 937.226 276.351C934.282 282.331 931.166 288.255 927.242 293.787C919.566 304.573 909.986 312.565 896.655 315.08C891.115 316.03 885.805 316.533 880.496 316.533C864.453 316.533 849.159 312.062 834.559 303.623C819.207 294.626 806.165 282.331 792.891 270.427C776.502 255.562 759.708 241.311 742.914 227.061C726.467 213.034 710.769 198.28 697.958 180.453C685.896 163.575 677.297 144.519 666.621 126.803C652.424 103.499 632.918 87.5718 607.467 79.5243C602.447 77.9596 597.484 77.1772 592.52 77.1772C577.4 77.1772 563.088 84.3863 553.162 97.1281C545.659 106.684 539.08 116.856 532.675 126.971C520.267 146.419 507.282 165.308 492.104 182.688C485.871 189.841 479.812 197.106 474.791 205.321C463.768 222.981 459.959 242.206 463.018 263.107C466.365 285.908 475.079 305.914 490.719 322.568C503.184 335.757 519.055 343.749 535.733 350.064C553.623 356.826 572.206 360.849 590.327 367.053C610.468 373.871 625.762 387.171 637.939 404.775C647.172 418.132 653.463 433.276 660.792 447.806C666.852 459.71 674.181 470.719 683.472 480.443C698.073 495.812 715.617 507.38 731.314 521.407C744.472 533.255 756.649 545.996 768.134 559.521C781.349 575.001 792.718 592.101 804.78 608.699C811.301 617.585 818.688 622 827.229 622M827.229 619.82C819.438 619.82 812.744 615.741 806.742 607.358C803.683 603.167 800.625 598.975 797.566 594.728C788.852 582.378 779.791 569.692 769.865 558.068C757.688 543.705 745.569 531.131 732.872 519.786C726.697 514.198 720.118 509.056 713.713 503.971C704.017 496.147 693.918 488.155 685.146 478.879C676.547 469.881 669.275 459.375 662.87 446.801C661.023 443.112 659.234 439.312 657.445 435.568C652.193 424.782 646.826 413.605 639.843 403.546C626.454 384.098 610.468 371.523 591.078 364.873C583.171 362.247 574.976 359.899 567.07 357.664C556.971 354.758 546.583 351.74 536.599 347.996C522.979 342.799 505.666 335.086 492.393 321.003C477.561 305.244 468.731 286.187 465.326 262.771C462.268 242.15 466.019 223.764 476.753 206.439C481.947 198.112 488.007 190.791 493.893 184.085C510.283 165.364 523.672 145.301 534.694 128.088C540.408 118.979 547.218 108.417 555.009 98.5252C564.415 86.3423 578.15 79.3567 592.52 79.3567C597.31 79.3567 602.1 80.1391 606.775 81.648C631.475 89.5278 650.462 104.617 664.659 127.921C668.641 134.571 672.392 141.501 676.085 148.263C682.145 159.496 688.493 171.12 696.111 181.682C709.788 200.739 726.64 216.107 741.356 228.737L746.03 232.649C761.035 245.447 776.502 258.58 791.333 272.048L794.796 275.178C806.742 285.964 819.092 297.196 833.404 305.523C848.524 314.297 864.395 318.768 880.496 318.768C885.979 318.768 891.461 318.265 897.117 317.259C909.698 314.912 920.201 307.647 929.204 295.017C932.551 290.211 935.667 284.734 939.245 277.301L943.574 268.416C951.711 251.371 960.137 233.711 970.929 217.896C981.374 202.36 991.993 191.518 1004.52 183.694C1016.06 176.485 1027.77 172.796 1039.14 172.796C1049.01 172.796 1058.99 175.535 1068.86 180.844C1078.21 185.929 1087.62 191.462 1096.62 196.715C1103.03 200.404 1109.49 204.148 1115.9 207.78C1131.54 216.666 1148.22 221.249 1165.7 221.416C1198.94 221.416 1222.08 208.954 1236.57 183.247C1241.71 174.026 1244.48 163.296 1245.63 149.436C1246.79 133.453 1245.57 119.65 1241.94 107.076C1235.82 86.7894 1221.97 73.9358 1200.67 68.9062C1188.38 66.0002 1175.8 65.2178 1163.57 64.4354L1156.81 64.0442C1151.16 63.7648 1145.33 63.7089 1139.73 63.7089C1126.63 63.5971 1113.13 63.5412 1100.14 60.0205C1076.83 53.929 1059.28 39.5666 1048.03 17.3802C1045.95 13.1889 1044.05 8.82983 1042.2 4.63845C1041.85 3.80018 1041.51 3.07367 1041.16 2.2354H1085.48C1085.71 2.40305 1085.95 2.57071 1086.23 2.79425C1087.62 3.68841 1088.72 4.41491 1089.52 5.64438C1096.74 17.3243 1107.7 25.0924 1123.23 29.3955C1133.33 32.1898 1143.6 33.6428 1153.87 33.6428C1167.72 33.6428 1181.98 31.0721 1196.29 25.9306C1205.75 22.4099 1212.74 15.8713 1217.12 6.59443C1217.93 4.75022 1219.14 3.40898 1220.93 2.2354H1265.89C1267.21 3.74429 1267.62 5.92381 1268.02 8.21509C1271.66 29.2837 1284.18 43.0873 1306.23 50.52C1312.69 52.6996 1319.21 54.7114 1325.91 56.6674C1332.89 58.791 1340.1 60.9705 1347.09 63.3736C1375.08 72.9858 1396.77 89.3042 1413.4 113.167C1417.95 119.817 1422.74 126.3 1427.53 132.783L1433.25 140.663C1434.4 142.171 1435.09 143.96 1435.84 145.86C1436.42 147.313 1436.88 148.71 1437.69 150.107V225.999C1419.51 241.2 1398.62 259.083 1380.33 279.537C1370.75 290.323 1361.51 301.611 1352.51 312.509L1343.05 323.965C1329.72 340.004 1316.44 354.031 1302.42 366.885L1294.57 373.927C1278.06 388.624 1261.1 403.825 1247.13 421.82C1228.03 446.689 1215.45 476.308 1209.56 509.671C1208.98 512.857 1208.41 516.042 1207.95 519.172C1205.93 531.243 1203.79 543.761 1199.17 555.273C1196.35 562.091 1190.86 570.25 1180.01 570.25C1177.76 570.25 1175.28 569.859 1172.8 569.189C1158.37 564.997 1147.7 556.167 1140.31 542.196C1133.15 528.616 1129.11 512.968 1127.61 492.85C1125.25 463.398 1120.63 429.141 1103.37 397.901C1083.87 362.861 1060.78 342.854 1030.6 334.807C1021.08 332.348 1011.21 331.119 1001.28 331.119C992.801 331.119 984.202 332.069 975.661 333.857C955.058 338.44 943.805 350.958 940.342 373.368C938.149 387.618 937.11 403.49 937.226 421.932C937.572 460.939 929.262 497.432 911.66 533.366L908.428 540.017C901.041 555.329 893.366 571.145 883.151 585.004C871.436 600.931 855.738 611.829 835.366 618.423C832.539 619.373 829.769 619.82 827.229 619.82" fill="black"/>
<path fill-rule="evenodd" clip-rule="evenodd" d="M202.08 610C206 610 210.037 609.777 214.073 609.274C230.102 607.321 244.114 600.902 254.666 588.4C273.694 566.074 282.054 538.948 283.899 509.589C285.11 490.668 281.593 472.417 276.98 454.221C271.733 433.514 268.389 412.471 269.196 390.871C269.773 376.582 271.157 362.35 273.405 348.284C278.364 317.53 289.377 289.623 308.982 265.678C320.052 252.171 331.296 238.72 342.54 225.324C356.724 208.301 371.197 191.835 388.726 178.607C406.255 165.491 421.708 150.644 434.22 132.225C444.137 117.713 454.805 103.927 466.625 90.7549C484.384 70.9406 505.603 55.4799 526.361 39.4053C539.392 29.3586 548.848 16.5212 553 0H486.518C486.114 1.00467 485.768 2.12096 485.191 3.06981C474.121 22.7166 458.841 38.6238 442.696 53.8055C423.726 71.5546 402.391 84.5594 378.866 94.3828C353.149 105.155 334.929 123.741 324.492 150.421C317.919 167.165 311.403 184.077 304.311 200.71C296.066 219.91 284.072 236.766 272.886 254.125C263.776 268.134 257.087 283.316 253.801 299.837C247.862 330.256 245.786 361.289 243.941 392.211C242.269 419.839 245.094 447.132 251.84 474.035C257.376 496.417 258.529 518.631 250.745 541.069C241.98 565.795 223.933 579.693 201.791 579.693C195.449 579.693 188.76 578.52 181.783 576.232C161.833 569.255 145.688 556.027 130.062 542.297C111.322 526.055 91.7754 511.152 69.8068 499.654C46.2814 487.487 22.0065 476.547 -1 463.207V525.273C0.902789 525.72 2.86324 526.11 4.70837 526.501C34.4034 532.138 63.1759 540.734 89.2383 557.255C106.767 568.362 122.97 581.423 140.96 591.804C160.103 602.744 180.284 610 202.08 610M202.08 607.823C182.879 607.823 163.274 601.907 142.17 589.963C131.849 583.935 121.874 576.958 112.302 570.204C105.21 565.181 97.945 560.046 90.4492 555.357C67.5581 540.845 41.2073 531.245 5.16965 524.324L1.36407 523.543L1.30641 523.487V467.114C15.2025 475.04 29.6753 482.184 43.6867 489.105C52.0475 493.235 60.4659 497.366 68.7113 501.663C87.9122 511.599 106.306 524.659 128.563 543.971C144.535 557.981 160.622 571.209 181.034 578.297C188.126 580.697 195.103 581.869 201.791 581.869C225.201 581.869 243.883 567.246 252.936 541.739C260.143 521.143 260.547 499.487 254.089 473.589C247.285 446.351 244.633 419.002 246.247 392.322C248.208 359.392 250.341 329.754 256.107 300.284C259.106 284.99 265.448 269.809 274.847 255.353C276.807 252.227 278.825 249.101 280.843 246.032C290.069 232.022 299.583 217.51 306.502 201.603C312.326 187.873 317.861 173.751 323.224 160.077L326.626 151.146C336.716 125.416 354.649 106.941 379.788 96.448C404.871 85.9548 425.974 72.5592 444.31 55.3683C459.763 40.8564 475.678 24.5585 487.152 4.18611C487.556 3.62796 487.844 2.90237 488.132 2.23259H550.002C545.85 16.1863 537.605 27.7958 524.919 37.675L517.424 43.4797C499.376 57.3776 480.694 71.6662 464.895 89.3037C453.363 102.029 442.754 115.704 432.317 130.997C420.9 147.742 406.197 162.7 387.342 176.877C369.006 190.608 354.245 207.687 340.695 223.929C329.509 237.269 318.265 250.72 307.194 264.339C288.282 287.335 276.519 314.684 271.157 347.949C268.85 362.071 267.466 376.415 266.89 390.759C266.14 410.406 268.677 430.723 274.731 454.779C279.056 471.747 282.862 490.11 281.593 509.478C279.575 541.348 270.234 566.744 252.878 587.004C243.364 598.335 230.16 605.088 213.785 607.042C209.921 607.544 205.943 607.823 202.08 607.823" fill="black"/>
<path fill-rule="evenodd" clip-rule="evenodd" d="M-1 382C0.503637 381.387 2.18077 380.941 3.45308 380.161C29.0149 364.614 55.849 351.852 82.4518 338.422C102.115 328.503 120.505 316.411 136.756 301.03C152.891 285.65 169.027 270.381 181.634 251.546C194.762 232.153 199.446 209.975 203.263 187.35C206.791 166.453 208.931 145.277 216.565 125.327C222.001 110.727 229.288 97.2414 241.086 86.7093C253.809 75.174 268.556 67.2053 282.84 58.122C304.412 44.4134 320.373 26.6926 325 0H285.848C284.922 1.78322 284.286 3.6779 283.13 5.23822C272.546 19.9498 258.666 30.5377 243.572 39.6767C231.081 47.3112 218.415 54.667 207.659 64.6976C192.217 79.242 185.162 98.5231 181.114 119.086C176.776 141.265 175.909 164.057 172.612 186.291C165.557 234.494 141.556 271.719 102.982 298.969C71.8107 320.757 35.6078 326.33 -1 329.729V382ZM1.31329 378.712V331.735C34.5668 328.559 72.4469 323.098 104.312 300.752C144.217 272.666 167.928 234.271 174.925 186.626C176.198 177.487 177.181 168.125 178.164 159.041C179.494 146.001 180.882 132.46 183.369 119.532C188.111 95.4025 196.323 78.5176 209.278 66.2579C218.936 57.3418 230.329 50.3761 241.433 43.6333L244.787 41.6271C263.177 30.4263 275.611 19.6712 285.038 6.51991C285.963 5.23822 286.599 3.9008 287.12 2.56338C287.178 2.45193 287.236 2.34048 287.293 2.22903H322.224C317.655 24.3522 304.701 41.6271 281.626 56.283C278.503 58.2334 275.38 60.1281 272.315 62.0228C261.153 68.877 249.645 75.8985 239.466 85.0932C228.941 94.5666 220.96 107.049 214.425 124.547C208.179 140.763 205.519 157.927 202.916 174.589C202.338 178.768 201.702 182.892 201.008 186.96C197.364 208.47 192.738 231.095 179.726 250.376C167.523 268.542 151.619 283.7 136.236 298.356L135.137 299.47C120.043 313.68 102.462 325.828 81.4109 336.472C76.206 339.035 71.0011 341.599 65.7962 344.218C44.6874 354.806 22.8847 365.672 2.2386 378.322C1.94944 378.489 1.66028 378.601 1.31329 378.712V378.712Z" fill="black"/>
<path fill-rule="evenodd" clip-rule="evenodd" d="M202.029 583C215.618 583 227.998 577.75 238.535 566.356C252.7 551.219 257.479 531.838 258.573 511.563C259.321 497.6 256.615 483.972 253.333 470.511C246.538 443.589 244.581 416.109 246.308 388.462C247.632 367.07 249.763 345.901 252.124 324.454C255.118 298.035 262.373 273.459 277.402 251.397C288.112 235.702 298.361 219.672 306.249 202.078C312.871 187.445 318.399 172.308 323.984 157.228C334.003 130.083 350.586 109.194 377.189 97.9114C383.695 95.1746 390.029 92.0467 396.42 88.9748C423.944 75.4582 446.515 55.2392 467.014 32.1158C473.578 24.8549 479.567 16.9795 484.461 8.37804C485.843 5.97634 488.549 3.35122 485.843 0H424.692C421.295 1.50805 418.474 3.90975 415.537 6.2556C410.873 10.3329 405.576 13.2932 399.472 14.9688C397.514 15.5832 395.557 15.8624 393.714 15.8624C387.265 15.8624 381.622 12.3436 378.398 5.69707C377.131 3.07195 375.461 1.34049 373.1 0H323.524C321.336 1.67561 320.241 4.02146 319.435 6.75829C315.462 21.1685 307.631 33.177 296.806 43.3424C287.018 52.6141 275.329 58.8697 264.043 65.9073C253.045 72.7773 242.22 79.9265 233.468 89.5892C220.167 104.111 212.854 121.928 208.075 141.03C203.008 161.584 200.935 182.865 196.789 203.586C192.701 223.917 185.446 242.74 172.605 259.161C160.686 274.521 147.097 287.981 132.99 301.107C116.176 316.69 97.0595 328.922 76.6761 338.92C52.7802 350.705 28.9994 362.713 6.02482 376.342C3.20337 378.017 0.784995 379.972 -1 382.876V463.473C0.439512 466.378 2.45483 468.333 5.16111 469.896C15.2953 475.761 25.6598 481.346 36.197 486.094C72.3575 502.515 105.581 523.348 135.178 550.605C149.631 563.898 165.868 574.957 184.87 580.487C190.801 582.106 196.501 583 202.029 583M202.029 580.822C196.789 580.822 191.261 579.928 185.561 578.308C168.92 573.505 152.913 563.898 136.732 548.985C108.403 522.901 75.8699 501.621 37.1759 484.083C27.7327 479.783 17.6561 474.588 6.3703 467.997C4.06708 466.657 2.45483 465.093 1.30322 462.971V383.547C2.62757 381.536 4.47014 379.86 7.17643 378.241C30.842 364.221 56.0622 351.598 77.7125 340.93C100.111 329.927 118.71 317.416 134.544 302.727C147.27 290.941 161.895 276.699 174.448 260.557C186.424 245.142 194.486 226.71 199.035 204.033C200.82 195.488 202.144 186.719 203.468 178.285C205.426 166.109 207.384 153.597 210.378 141.589C215.79 119.638 223.737 103.608 235.195 91.0414C243.89 81.4904 254.83 74.3412 265.31 67.7504C267.44 66.4658 269.628 65.1812 271.759 63.8407C280.856 58.3112 290.3 52.6141 298.418 44.9063C310.107 33.959 317.708 21.6712 321.623 7.31682C322.372 4.91512 323.178 3.35122 324.387 2.23414H372.409C374.137 3.29536 375.404 4.6917 376.325 6.64658C379.895 13.9634 386.171 18.0966 393.714 18.0966C395.787 18.0966 397.918 17.7614 400.048 17.0912C406.439 15.3597 411.967 12.3436 416.977 7.98707L417.84 7.26097C420.259 5.30609 422.562 3.46292 425.211 2.23414H484.519C484.922 3.23951 484.403 4.18902 483.309 5.92048C483.021 6.42317 482.734 6.86999 482.446 7.26097C478.012 15.1363 472.369 22.7883 465.229 30.6078C441.679 57.25 419.453 75.1231 395.384 86.9641L391.584 88.8072C386.574 91.2089 381.45 93.6665 376.267 95.8448C350.644 106.736 332.852 126.508 321.796 156.446L320.529 160.076C315.462 173.705 310.222 187.78 304.061 201.185C296.058 219.17 285.578 235.367 275.444 250.168C261.509 270.611 253.16 294.851 249.821 324.23C247.748 343.276 245.387 365.729 244.005 388.35C242.22 417.394 244.581 445.209 251.087 471.069C254.197 483.748 257.018 497.432 256.27 511.452C255.003 535.078 248.784 552.001 236.807 564.903C227.076 575.404 215.33 580.822 202.029 580.822" fill="black"/>
<path fill-rule="evenodd" clip-rule="evenodd" d="M829.48 537H830.52C848.317 536.722 863.109 528.604 874.954 516.038C901.938 487.403 914.13 453.319 905.001 413.341C901.129 396.549 893.04 382.204 877.901 372.918C871.661 369.082 865.478 365.467 859.006 362.076C838.494 351.289 819.83 337.833 803.536 320.986C794.58 311.645 785.508 302.248 776.725 292.573C756.79 270.61 734.371 251.427 710.507 233.802C686.932 216.231 665.264 196.659 648.623 171.694C642.96 163.409 637.413 155.013 629.381 148.897C621.812 143.059 613.78 139 604.882 139C601.357 139 597.659 139.667 593.903 141.057C583.445 144.949 575.009 151.955 568.075 161.018C550.105 184.538 535.775 210.504 523.12 237.416C517.747 248.703 514.222 260.769 516.938 273.668C521.098 293.908 534.792 304.75 552.358 311.978C567.497 318.206 583.271 321.875 598.641 327.436C617.132 334.052 633.484 343.949 647.64 358.295C661.104 372.14 670.638 388.487 678.669 405.946C691.035 433.413 707.849 457.267 730.846 476.56C748.816 491.684 766.44 507.197 785.97 520.153C799.26 528.882 813.012 537 829.48 537M829.48 534.776C813.821 534.776 800.531 526.992 787.299 518.373C770.427 507.086 754.537 493.742 739.282 480.731L732.349 474.892C710.565 456.711 693.692 433.802 680.749 405.001C671.331 384.428 661.335 369.082 649.316 356.794C635.391 342.615 619.038 332.329 599.45 325.378C592.805 322.932 586.103 320.875 579.573 318.873C570.79 316.204 561.834 313.479 553.283 309.921C533.232 301.747 522.716 290.349 519.191 273.224C516.996 262.604 518.845 251.872 525.201 238.361C539.762 207.391 553.918 183.259 569.924 162.353C576.973 153.123 585.294 146.617 594.77 143.115C598.121 141.891 601.588 141.224 604.882 141.224C612.22 141.224 619.558 144.227 627.937 150.621C635.391 156.237 640.764 164.243 646.022 171.916L646.716 172.862C661.335 194.88 681.212 214.786 709.178 235.525C735.353 254.986 756.906 274.058 774.992 294.074C783.543 303.471 792.211 312.479 801.802 322.543C817.577 338.778 836.414 352.735 857.909 364.077C863.744 367.08 869.638 370.527 876.63 374.809C890.093 382.982 898.529 395.771 902.747 413.786C911.183 450.928 901.245 484.845 873.221 514.592C860.798 527.714 846.41 534.498 830.404 534.776H829.48" fill="black"/>
<path fill-rule="evenodd" clip-rule="evenodd" d="M1175.14 450C1177.78 450 1180.54 449.107 1183.7 447.599C1193.64 442.686 1199.9 433.641 1206.62 425.489C1220.35 408.572 1234.25 391.822 1249.25 376.022C1272.05 352.293 1295.95 329.513 1315.83 302.769C1336.4 275.132 1358.92 249.282 1378.56 220.974C1388.62 206.57 1396.03 190.657 1393.5 172.009C1389.37 140.52 1370.01 112.38 1336.97 104.563C1332.84 103.558 1328.64 103 1324.51 103C1308.02 103 1292.62 111.375 1286.36 131.754C1282.17 145.209 1279.35 158.777 1275.9 172.288C1268.49 200.93 1253.44 223.599 1226.73 235.938C1206.1 245.373 1184.56 249.058 1162.67 249.058C1153.19 249.058 1143.66 248.444 1134.06 247.16C1116.88 244.982 1100.97 238.115 1085.12 231.248C1073.8 226.279 1062.25 222.035 1049.73 221.644C1029.33 221.644 1008.31 238.394 1002.96 258.996C999.976 270.33 1004.06 281.05 1013.53 287.75C1020.66 292.719 1028.24 296.404 1036.23 299.084C1066.79 309.581 1090.29 329.736 1108.84 356.536C1121.37 374.905 1132.91 393.944 1143.89 413.374C1150.03 424.205 1155.61 435.316 1164.28 444.305C1167.96 448.213 1171.35 450 1175.14 450M1175.14 447.711C1171.98 447.711 1169.16 446.259 1165.95 442.798C1158.65 435.149 1153.59 426.104 1148.31 416.556L1145.9 412.257C1133.37 390.203 1122.23 372.058 1110.74 355.308C1090.69 326.219 1066.5 307.124 1036.97 296.963C1028.82 294.227 1021.4 290.542 1014.91 285.964C1006.12 279.71 1002.45 269.828 1005.15 259.555C1010.26 239.846 1030.25 223.878 1049.67 223.878C1062.02 224.269 1073.57 228.623 1084.14 233.258C1099.82 240.069 1116.14 247.16 1133.72 249.393C1143.83 250.677 1153.54 251.292 1162.67 251.292C1186.69 251.292 1208 246.937 1227.76 237.948C1253.33 226.167 1269.81 204.839 1278.14 172.847C1279.29 168.268 1280.44 163.69 1281.53 159.112C1283.66 150.346 1285.84 141.245 1288.54 132.424C1295.84 108.807 1314.16 105.233 1324.51 105.233C1328.41 105.233 1332.43 105.736 1336.45 106.741C1365.81 113.72 1386.9 138.845 1391.26 172.288C1393.27 187.698 1388.79 202.27 1376.67 219.746C1365.24 236.217 1352.54 252.129 1340.3 267.539C1331.57 278.594 1322.49 289.984 1313.99 301.485C1298.19 322.702 1279.47 341.74 1261.54 360.221C1256.83 364.967 1252.23 369.713 1247.58 374.458C1232.13 390.762 1218 407.902 1204.84 424.038L1201.97 427.555C1196.45 434.479 1190.71 441.625 1182.66 445.645C1179.73 447.041 1177.26 447.711 1175.14 447.711" fill="#003CA7"/>
<path fill-rule="evenodd" clip-rule="evenodd" d="M207.445 838H268.663C272.644 819.374 279.453 801.922 287.473 784.862C297.685 763.326 308.994 742.295 321.169 721.878C340.844 688.653 361.5 656.155 390.58 630.536C405.64 617.336 421.737 605.757 439.105 595.912C462.242 582.712 487.456 575.384 512.728 568.168C533.615 562.351 547.578 548.367 555.829 528.175C562.637 511.562 567.946 494.502 568.869 476.155C569.619 461.164 567.311 447.236 557.733 435.434C550.925 427.212 542.847 420.332 533.904 414.962C519.71 406.46 504.997 399.02 490.514 391.245C471.647 381.177 454.222 369.039 439.393 353.209C429.527 342.694 419.833 331.786 409.621 321.55C401.024 312.824 391.1 306.671 378.464 306.056C377.713 306 376.963 306 376.329 306C354.807 306 336.574 324.011 327.977 343.588C319.207 363.278 318.399 384.086 322.265 405.005C324.919 419.437 328.843 433.644 332.247 447.964C335.074 460.213 336.055 472.799 334.786 485.272C332.997 502.556 329.477 519.449 324.688 536.006C317.072 562.687 310.033 589.648 297.57 614.483C293.358 622.761 288.454 630.704 281.761 636.857C271.548 645.974 259.547 652.071 246.449 655.651C223.024 662.028 198.79 661.692 174.903 664.321C164.229 665.496 153.497 666.67 143.573 671.369C134.86 675.452 126.725 683.171 128.167 695.365C129.206 704.427 132.148 712.593 136.533 720.368C143.919 733.289 152.804 745.036 161.978 756.502C181.481 781.114 199.944 806.229 207.445 838M209.234 835.763C201.444 804.439 183.327 779.771 163.767 755.216C155.17 744.308 146.169 732.45 138.553 719.361C134.052 711.195 131.398 703.308 130.475 695.085C128.975 682.724 138.668 676.179 144.553 673.383C154.074 668.908 164.633 667.733 175.134 666.559C182.519 665.719 190.135 665.16 197.463 664.601C213.792 663.426 230.697 662.196 247.084 657.833C261.105 654.029 273.337 647.485 283.319 638.535C291.166 631.319 296.358 621.922 299.647 615.434C311.072 592.724 318.053 567.945 324.862 543.893L326.881 536.565C332.016 519.001 335.363 502.277 337.094 485.496C338.363 473.246 337.498 460.493 334.497 447.572C333.516 443.153 332.362 438.79 331.266 434.427C328.843 424.639 326.419 414.57 324.515 404.614C320.361 382.016 322.15 362.327 330.112 344.483C338.017 326.416 355.326 308.237 376.329 308.237C376.963 308.237 377.656 308.237 378.348 308.293C389.08 308.797 398.543 313.495 407.948 323.06C414.987 330.164 421.911 337.659 428.604 344.931C431.604 348.175 434.662 351.475 437.662 354.72C451.452 369.375 468.358 382.016 489.418 393.203C493.168 395.217 496.976 397.174 500.727 399.188C511.343 404.838 522.248 410.599 532.692 416.864C541.635 422.233 549.482 429.002 555.944 436.833C564.08 446.789 567.426 459.263 566.561 476.043C565.753 491.761 561.83 507.535 553.694 527.336C545.328 547.64 531.365 560.617 512.036 566.043C488.495 572.755 461.78 580.306 437.893 593.955C420.641 603.799 404.197 615.49 388.965 628.914C359.135 655.204 338.132 688.709 319.207 720.76C306.975 741.232 295.608 762.376 285.396 783.911C276.279 803.32 270.336 819.877 266.759 835.763H209.234" fill="black"/>
<path fill-rule="evenodd" clip-rule="evenodd" d="M1371.47 593C1380.65 593 1389.89 592.328 1399.25 591.039C1413.37 588.91 1426.34 582.523 1440 578.433V445.037C1433.51 443.468 1427.09 441.9 1420.54 440.219C1404.87 436.409 1389.2 434 1373.42 434C1360.67 434 1347.82 435.569 1334.96 439.154C1304.08 447.782 1274.58 476.859 1271.36 511.707C1268.78 539.16 1280.09 565.548 1303.96 577.537C1325.6 588.462 1348.28 593 1371.47 593M1371.47 590.815C1347.13 590.815 1325.37 585.773 1305 575.52C1283.01 564.483 1271.02 540.168 1273.6 511.931C1276.93 476.355 1308.04 449.015 1335.59 441.339C1347.82 437.922 1360.22 436.297 1373.42 436.297C1387.88 436.297 1403.15 438.258 1420.03 442.404C1425.88 443.86 1431.79 445.373 1437.7 446.83V576.809C1433.28 578.153 1428.92 579.778 1424.73 581.291C1416.29 584.372 1407.74 587.453 1398.96 588.798C1389.49 590.143 1380.25 590.815 1371.47 590.815" fill="#003CA7"/>
<path fill-rule="evenodd" clip-rule="evenodd" d="M991.987 731C1010.64 731 1027.81 724.596 1044.93 717.857C1068.37 708.612 1091.99 700.036 1116.64 694.69C1121.2 693.798 1125.99 692.74 1129.99 690.346C1141.74 683.106 1143.22 676.757 1138.49 665.73C1136.77 661.72 1134.78 657.934 1132.04 654.536C1124.39 645.18 1116.81 635.824 1109.16 626.357C1093.02 606.252 1079.5 584.422 1071.34 559.361C1064.44 537.92 1063.07 515.755 1063.81 497.265C1063.81 485.403 1064.15 477.439 1063.81 469.475C1063.13 456.555 1061.3 443.969 1055.2 432.33C1051.66 425.48 1046.75 419.632 1040.65 415.567C1036.03 412.504 1031.35 411 1026.84 411C1017.77 411 1009.44 417.07 1004.65 429.378C1000.32 440.628 999.916 452.768 999.289 464.575C998.262 482.117 999.403 499.66 998.262 517.314C996.607 542.598 997.007 567.937 997.007 593.221C996.95 606.865 995.409 620.342 993.185 633.764C990.503 650.415 985.369 666.343 981.376 682.716C978.694 693.91 974.53 704.77 975.043 716.743C975.443 725.431 980.349 730.554 988.792 730.889C989.876 731 990.903 731 991.987 731M991.987 731V728.717H988.906C979.778 728.327 977.553 721.978 977.325 716.632C976.983 707.833 979.208 699.757 981.547 691.181C982.231 688.508 983.03 685.835 983.658 683.273C984.913 677.704 986.339 672.246 987.822 666.844C990.732 656.207 993.584 645.292 995.467 634.098C997.977 618.449 999.232 605.417 999.289 593.221V581.191C999.175 560.252 999.175 538.644 1000.54 517.481C1001.17 508.236 1001.11 498.88 1001.11 489.858C1001.06 481.56 1001.06 473.04 1001.51 464.686L1001.63 462.291C1002.26 451.432 1002.83 440.349 1006.76 430.158C1010.98 419.354 1018.34 413.228 1026.84 413.228C1030.95 413.228 1035.29 414.676 1039.28 417.404C1044.98 421.191 1049.66 426.538 1053.2 433.276C1059.53 445.417 1060.9 458.393 1061.47 469.587C1061.76 474.71 1061.7 479.834 1061.64 486.238C1061.59 489.636 1061.59 493.2 1061.59 497.21C1060.56 520.321 1063.13 541.484 1069.17 560.029C1076.65 582.974 1089.14 605.083 1107.34 627.749C1114.3 636.381 1121.2 644.735 1128.1 653.255L1130.21 655.873C1132.55 658.769 1134.44 662.166 1136.38 666.621C1140.88 677.147 1139.23 681.992 1128.73 688.396C1125.02 690.624 1120.29 691.738 1116.12 692.518C1090.22 698.142 1065.12 707.443 1044.07 715.796C1025.3 723.148 1009.56 728.717 991.987 728.717V731" fill="#003CA7"/>
<path fill-rule="evenodd" clip-rule="evenodd" d="M362.157 603C364.29 603 366.655 602.607 369.25 601.934C381.361 598.737 391.914 591.951 402.41 585.444C422.768 572.768 442.78 559.644 462.791 546.519C476.113 537.937 489.146 529.187 500.104 517.128C510.254 505.967 516.597 493.291 515.905 477.025C516.77 464.91 511.638 454.87 503.506 446.12C493.126 434.959 480.611 426.826 467.52 419.703C449.239 409.663 430.669 399.959 413.425 388.013C407.774 384.086 401.949 380.385 395.663 377.468C392.087 375.785 388.685 375 385.628 375C376.747 375 370.75 381.731 370.288 393.677C369.942 400.801 370.692 407.868 371.961 414.823C375.536 437.819 375.248 460.423 369.654 483.083C364.348 504.845 356.563 525.766 351.545 547.697C348.893 559.756 346.643 571.983 347.047 584.491C347.451 596.662 352.699 603 362.157 603M362.157 600.7C353.968 600.7 349.7 595.204 349.354 584.379C348.95 571.815 351.315 559.587 353.795 548.201C356.447 536.647 359.908 525.149 363.31 514.044C366.251 504.172 369.365 493.908 371.903 483.587C377.324 461.601 378.074 438.941 374.21 414.43C372.826 406.466 372.307 399.903 372.595 393.734C372.999 383.413 377.843 377.244 385.628 377.244C388.397 377.244 391.453 377.973 394.625 379.487C400.046 382.011 405.467 385.208 412.041 389.807C426.978 400.128 443.068 408.934 458.581 417.403L466.424 421.722C476.978 427.499 490.646 435.688 501.834 447.635C510.427 457.001 514.348 466.537 513.598 477.137C514.233 491.272 509.331 503.555 498.316 515.67C487.762 527.28 474.902 536.03 461.522 544.668C441.972 557.456 421.73 570.749 401.199 583.481L398.95 584.939C389.435 590.829 379.573 596.942 368.616 599.803C366.251 600.364 364.06 600.7 362.157 600.7" fill="#003CA7"/>
<path fill-rule="evenodd" clip-rule="evenodd" d="M1357.84 554C1378.71 554 1399.81 544.499 1414.59 527.484C1423.81 516.657 1422.73 503.178 1413.63 494.45C1399.58 480.916 1383.15 476.221 1364.72 476H1363.24C1349.54 476 1336.8 479.204 1325.88 488.319C1316.1 496.439 1310.18 506.769 1311.09 519.916C1312.12 534.224 1320.3 544.057 1332.7 549.028C1340.72 552.398 1349.31 554 1357.84 554M1357.84 551.735C1349.37 551.735 1341.18 550.188 1333.56 546.984C1321.27 542.013 1314.28 532.622 1313.37 519.806C1312.57 508.261 1317.12 498.483 1327.3 489.921C1336.85 482.021 1348.63 478.154 1363.24 478.154H1364.72C1384.62 478.431 1399.64 484.065 1412.04 495.997C1420.68 504.394 1421.02 516.436 1412.83 526.048C1398.96 542.123 1378.31 551.735 1357.84 551.735" fill="black"/>
<path fill-rule="evenodd" clip-rule="evenodd" d="M195.595 534C203.001 534 209.546 530.219 214.139 523.267C216.665 519.43 217.986 515.093 218.732 510.7C221.718 495.129 218.675 479.78 217.297 464.321C215.804 448.861 214.943 433.291 215.919 417.776C217.067 399.758 218.445 381.796 218.904 363.723C219.249 348.82 217.814 334.139 212.417 320.125C208.857 310.782 202.943 306 194.791 306C192.437 306 189.911 306.389 187.212 307.223C178.428 309.837 170.505 314.286 162.869 319.513C139.272 335.807 115.675 352.045 92.2498 368.505C84.0396 374.344 75.8869 380.406 69.2843 388.191C54.2993 405.931 50.4526 423.781 65.7821 443.857C69.9733 449.306 74.8534 453.866 80.1929 457.87C104.766 476.221 130.545 492.626 154.084 512.368C164.361 520.987 175.27 528.55 187.958 532.721C190.542 533.555 193.126 534 195.595 534M195.595 531.831V531.831C193.355 531.831 191.059 531.386 188.705 530.608C175.27 526.27 163.96 517.706 155.635 510.7C140.592 498.132 124.459 486.732 108.842 475.665C99.8858 469.381 90.5848 462.764 81.6283 456.091C76.0591 451.864 71.466 447.416 67.6193 442.522C54.1271 424.782 55.1605 408.433 71.0641 389.581C77.6667 381.852 85.8195 375.79 93.6277 370.34C116.019 354.547 138.927 338.699 161.031 323.461L164.189 321.293C172.859 315.342 180.38 311.561 187.901 309.337C190.37 308.614 192.666 308.224 194.791 308.224C201.967 308.224 207.02 312.395 210.292 320.903C215 333.249 217.01 346.818 216.608 363.667C216.263 378.181 215.287 392.918 214.311 407.265L213.565 417.664C212.761 431.233 213.221 446.137 215 464.488C215.345 467.88 215.689 471.105 216.034 474.498C217.412 486.231 218.732 498.354 216.493 510.31C215.632 515.26 214.254 518.93 212.187 522.044C208.111 528.328 202.14 531.831 195.595 531.831" fill="#003CA7"/>
<path fill-rule="evenodd" clip-rule="evenodd" d="M819.06 486C821.772 486 824.427 485.22 827.082 484.608C848.435 479.931 862.113 455.654 855.187 434.997C852.071 426.199 847.223 418.515 840.933 411.834C831.468 401.811 821.08 392.902 811.211 383.381C789.627 362.39 769.486 339.895 749.922 316.954C735.898 300.473 720.893 285.328 702.194 274.693C691.345 268.401 679.86 263.835 667.337 263.056C666.644 263 665.952 263 665.259 263C659.142 263 653.428 264.67 649.504 270.405C645.118 276.642 647.253 282.711 650.139 288.724C653.255 295.295 656.487 301.698 661.046 307.266C681.245 332.211 697.289 359.605 708.485 390.118C715.93 409.885 726.087 428.092 741.15 442.792C755.693 456.991 772.083 468.516 789.973 477.704C798.63 482.047 807.806 485.332 817.617 485.889C818.079 485.944 818.598 486 819.06 486M819.06 483.717C818.598 483.717 818.252 483.717 817.79 483.661C809.48 483.16 800.996 480.655 791.012 475.699C773.064 466.512 756.847 454.875 742.766 441.177C729.319 428.148 718.873 411.166 710.62 389.395C699.713 359.605 683.611 331.543 662.835 305.93C658.391 300.473 655.16 294.014 652.216 287.778C649.158 281.263 648.003 276.53 651.408 271.63C654.409 267.232 658.853 265.227 665.259 265.227C665.952 265.227 666.529 265.227 667.164 265.283C678.129 265.951 688.805 269.515 701.04 276.586C720.777 287.889 735.956 304.036 748.133 318.346C771.275 345.574 790.781 366.677 809.595 384.996C813.058 388.337 816.578 391.622 820.214 394.851C826.505 400.865 833.084 406.934 839.259 413.337C845.549 419.963 850.166 427.536 852.994 435.721C856.226 445.242 854.841 456.044 849.358 465.343C844.164 474.14 835.796 480.321 826.505 482.436L825.581 482.603C823.331 483.16 821.195 483.717 819.06 483.717" fill="#003CA7"/>
<path fill-rule="evenodd" clip-rule="evenodd" d="M1180.34 371C1186.84 371 1193.97 368.37 1202.31 362.829C1220.82 350.46 1236.46 334.957 1248.89 316.263C1254.23 308.372 1258.78 299.921 1260.67 290.294C1262.28 282.515 1257.8 275.63 1250.27 274.343C1246.53 273.672 1242.85 273 1239.05 273C1238.48 273 1237.79 273 1237.15 273.056C1219.9 274.231 1202.77 276.19 1185.57 279.101C1172.12 281.395 1158.83 284.194 1146.59 291.19C1136.41 296.898 1131.92 307.085 1134.91 318.67C1138.19 331.431 1143.54 343.52 1151.99 353.426C1161.65 364.788 1170.28 371 1180.34 371M1180.34 371V368.761C1171.77 368.761 1163.78 363.724 1153.77 351.971C1146.24 343.128 1140.66 331.766 1137.15 318.166C1134.45 307.7 1138.42 298.354 1147.74 293.093C1159.87 286.152 1173.32 283.522 1186.03 281.283C1202.42 278.541 1219.73 276.47 1237.33 275.295C1237.9 275.239 1238.48 275.239 1239.05 275.239C1242.56 275.239 1246.01 275.854 1249.92 276.582C1252.74 277.03 1255.15 278.541 1256.76 280.78C1258.49 283.298 1259.12 286.488 1258.43 289.846C1256.82 297.906 1253.31 305.741 1246.93 315.088C1234.74 333.334 1219.33 348.781 1200.98 360.926C1193.16 366.243 1186.32 368.761 1180.34 368.761V371" fill="#003CA7"/>
<path fill-rule="evenodd" clip-rule="evenodd" d="M145.196 428H145.487C152.591 428 157.657 423.065 160.86 416.006C163.422 410.497 165.111 404.701 164.994 398.847C164.936 389.952 160.161 381 151.718 381C149.156 381 146.361 381.746 143.216 383.64C139.082 386.165 134.656 388.288 131.454 392.076C127.552 396.609 124.815 401.774 124 407.685C124.291 410.899 125.165 413.711 126.62 416.35C130.813 423.811 137.335 428 145.196 428M145.196 428V425.705C138.208 425.705 132.502 422.032 128.658 415.203C127.319 412.735 126.562 410.21 126.329 407.972C127.028 402.922 129.299 398.159 133.2 393.568C135.588 390.756 138.791 388.862 142.11 386.911L144.381 385.591C147.001 384.042 149.447 383.295 151.718 383.295C158.764 383.295 162.607 391.33 162.665 398.962C162.782 403.955 161.442 409.407 158.705 415.088C156.493 419.908 152.475 425.705 145.429 425.705L145.196 428" fill="black"/>
</g>
</svg>
