<svg width="48" height="24" viewBox="0 0 48 24" fill="none" xmlns="http://www.w3.org/2000/svg">
<path fill-rule="evenodd" clip-rule="evenodd" d="M36 24H24V12C24 5.36844 29.3684 0 36 0C42.6316 0 48 5.36844 48 12C48 18.6316 42.6316 24 36 24ZM29.3736 10.8517C28.739 14.5136 31.1897 17.9918 34.8517 18.6264C38.5136 19.261 41.9918 16.8103 42.6264 13.1483C43.261 9.48637 40.8103 6.00821 37.1483 5.37362C33.4864 4.739 30.0082 7.18971 29.3736 10.8517Z" fill="#007CFF"/>
<path d="M0 12.0972C0 18.6802 5.31983 24 11.9028 24L24 24L24 11.9028C24 5.31983 18.6802 0 12.0972 0L0 0L0 12.0972Z" fill="#007CFF"/>
</svg>
